<mxfile host="app.diagrams.net" modified="2021-04-01T17:20:24.077Z" agent="5.0 (Windows NT 10.0; Win64; x64) AppleWebKit/537.36 (KHTML, like Gecko) Chrome/89.0.4389.90 Safari/537.36 Edg/89.0.774.63" etag="YIyIYKkJA2YWaT9z6d1h" version="14.5.4" type="github">
  <diagram id="fT0qEKxTai83L9doPcw2" name="Page-1">
    <mxGraphModel dx="782" dy="469" grid="1" gridSize="10" guides="1" tooltips="1" connect="1" arrows="1" fold="1" page="1" pageScale="1" pageWidth="850" pageHeight="1100" math="0" shadow="0">
      <root>
        <mxCell id="0" />
        <mxCell id="1" parent="0" />
        <mxCell id="DiBz2OChCTfoum1YHqz3-2" value="" style="endArrow=classic;html=1;" edge="1" parent="1" source="DiBz2OChCTfoum1YHqz3-1" target="DiBz2OChCTfoum1YHqz3-1">
          <mxGeometry width="50" height="50" relative="1" as="geometry">
            <mxPoint x="570" y="400" as="sourcePoint" />
            <mxPoint x="620" y="350" as="targetPoint" />
          </mxGeometry>
        </mxCell>
        <mxCell id="DiBz2OChCTfoum1YHqz3-6" value="" style="endArrow=classic;html=1;" edge="1" parent="1" source="DiBz2OChCTfoum1YHqz3-1">
          <mxGeometry width="50" height="50" relative="1" as="geometry">
            <mxPoint x="700" y="440" as="sourcePoint" />
            <mxPoint x="750" y="390" as="targetPoint" />
          </mxGeometry>
        </mxCell>
        <mxCell id="DiBz2OChCTfoum1YHqz3-1" value="" style="shape=image;verticalLabelPosition=bottom;labelBackgroundColor=#ffffff;verticalAlign=top;aspect=fixed;imageAspect=0;image=data:image/jpeg,/9j/4AAQSkZJRgABAQEAkACQAAD/2wBDAAIBAQIBAQICAgICAgICAwUDAwMDAwYEBAMFBwYHBwcGBwcICQsJCAgKCAcHCg0KCgsMDAwMBwkODw0MDgsMDAz/2wBDAQICAgMDAwYDAwYMCAcIDAwMDAwMDAwMDAwMDAwMDAwMDAwMDAwMDAwMDAwMDAwMDAwMDAwMDAwMDAwMDAwMDAz/wAARCAKIBIADASIAAhEBAxEB/8QAHwAAAQUBAQEBAQEAAAAAAAAAAAECAwQFBgcICQoL/8QAtRAAAgEDAwIEAwUFBAQAAAF9AQIDAAQRBRIhMUEGE1FhByJxFDKBkaEII0KxwRVS0fAkM2JyggkKFhcYGRolJicoKSo0NTY3ODk6Q0RFRkdISUpTVFVWV1hZWmNkZWZnaGlqc3R1dnd4eXqDhIWGh4iJipKTlJWWl5iZmqKjpKWmp6ipqrKztLW2t7i5usLDxMXGx8jJytLT1NXW19jZ2uHi4+Tl5ufo6erx8vP09fb3+Pn6/8QAHwEAAwEBAQEBAQEBAQAAAAAAAAECAwQFBgcICQoL/8QAtREAAgECBAQDBAcFBAQAAQJ3AAECAxEEBSExBhJBUQdhcRMiMoEIFEKRobHBCSMzUvAVYnLRChYkNOEl8RcYGRomJygpKjU2Nzg5OkNERUZHSElKU1RVVldYWVpjZGVmZ2hpanN0dXZ3eHl6goOEhYaHiImKkpOUlZaXmJmaoqOkpaanqKmqsrO0tba3uLm6wsPExcbHyMnK0tPU1dbX2Nna4uPk5ebn6Onq8vP09fb3+Pn6/9oADAMBAAIRAxEAPwD7s/4KY/t0eLfBPxWTwl4RvJNJXSX8yeeGaaB5g8EDqpaKUZAMjcFR0FfN/wDw3/8AF9h/yNV+Ppqd7/8AHq3P+CmLZ/aw1zjtB/6SW1eB1+L5zm+L+uTjGbWr2P7g4I4Tyd8P4WU8NGUpRTbau23qewf8N/8AxfX/AJmq+/8ABne//HqP+HgXxf8A+hpvv/Ble/8Ax6vH6K8pZpjF/wAvZfefVrhHJLf7rD/wFHsH/DwL4v8A/Q033/gyvf8A49R/w8C+L/8A0NN9/wCDK9/+PV4/RT/tTGf8/H94f6o5J/0Cw/8AAUewf8PAvi//ANDTff8Agyvf/j1H/DwL4v8A/Q033/gyvf8A49Xj9FH9qYz/AJ+S+8P9Uck/6BYf+Ao9g/4eBfF//oab7/wZXv8A8eo/4eBfF/8A6Gm+/wDBle//AB6vH6KP7Uxn/PyX3h/qjkn/AECw/wDAUewf8PAvi/8A9DTff+DK9/8Aj1H/AA8C+L//AENN9/4Mr3/49Xj9FH9qYz/n5L7w/wBUck/6BYf+AnsH/DwL4v8A/Q033/gyvf8A49R/w8C+L/8A0NN9/wCDK9/+PV4/RR/amM/5+S+8P9Uck/6BYf8AgKPYP+HgXxf/AOhpvv8AwZXv/wAeo/4eBfF//oab7/wZXv8A8erx+ij+1MZ/z8l94f6o5J/0Cw/8BR7B/wAPAvi//wBDTff+DK9/+PUf8PAvi/8A9DTff+DK9/8Aj1eP0Uf2pjP+fkvvD/VHJP8AoFh/4Cj2D/h4F8X/APoab7/wZXv/AMeo/wCHgXxf/wChpvv/AAZXv/x6vH6KP7Uxn/PyX3h/qjkn/QLD/wABPYP+HgXxf/6Gm+/8GV7/APHqP+HgXxf/AOhpvv8AwZXv/wAerx+ij+1MZ/z8l94f6o5J/wBAsP8AwE9fP7f/AMYG/wCZqv8A8NTvf/j1ewfsNf8ABQfx3J8drHSfFGpS61p+uyQ2arNcXFz5DvcRJuXzJsL8rtzg9uK+QVODXon7JAz+0n4N/wCwtZ/+lUNdmX5tjFiad6jab7nhcTcG5LLK63LhoL3XqlZo/bS2mF3axyD7siBx9CM1Mn3aqaIP+JLZ+vkp/wCgira9K/b4u6P4TkrScULRRRTJCiiigAooooAKKKKACiiigAooooAKKKKAPmP9vT9qvUvg8l34f0bEOoXenwzx3PzK0JeYqcOkisPlU9u9fJcX7ZXxMQf8jFfH6391/wDHK9Y/4Ki/8lli/wCwRa/+j5K+W25NfxF4rcYZxT4jrYejXlCMLpWdla7/ABP6m8OuGcsnk9OvVoqUpau6v0Wx6cf2z/iX28Q3v/gfdf8Ax2l/4bO+Jn/QwXv/AIH3X/x2vMBzRX5r/rlntrfWp/8AgTPuP9WMot/u0fuPTh+2b8TB/wAzDe/+B91/8doH7ZvxM/6GG9/8D7r/AOO15jRR/rnnv/QVP/wJj/1Yyj/oHh9yPTv+GzfiZj/kYb3/AMD7r/47R/w2b8TMf8jDe/8Agfdf/Ha8xoo/1zz3/oKn/wCBMP8AVjKP+geH3I9O/wCGzfiZj/kYb3/wPuv/AI7R/wANm/EzH/Iw3v8A4H3X/wAdrzGij/XPPf8AoKn/AOBMP9WMo/6B4fcj07/hs34mY/5GG9/8D7r/AOO0H9s34mf9DDe/+B91/wDHa8xoo/1zz3/oKn/4Ew/1Yyj/AKB4fcj04/tm/Ew/8zDe/wDgfdf/AB2g/tm/Ez/oYb3/AMD7r/47XmNFH+uWe/8AQVP/AMCYv9WMo/6B4fcj07/hs34mZ/5GG9/8D7r/AOO0f8Nm/EzP/Iw3v/gfdf8Ax2vMaKP9cs9/6Cp/+BMP9WMo/wCgeH3I9O/4bN+Jmf8AkYb3/wAD7r/47R/w2b8TM/8AIw3v/gfdf/Ha8xoo/wBc89/6Cp/+BMf+rGUf9A8PuR6d/wANm/EzP/Iw3v8A4H3X/wAdo/4bN+Jmf+Rhvf8AwPuv/jteY0Uf6557/wBBU/8AwJh/qxlH/QPD7kenD9s34mf9DDe/+B91/wDHaB+2b8TP+hhvf/A+6/8AjteY0Uf6557/ANBU/wDwJh/qxlH/AEDw+5Hp3/DZvxMx/wAjDff+B91/8drW8BftzfEHQPGumz3mrXF/aNPEk0M11cyqV8xS3ymUDOARz6143T7X/kI2n/XdP5104PjXPYV4S+tT3X2mYYnhTJ6lGVN4eKut7H7F6ZqCanbmSPOA205/A/1q4lYvggY0iT/rsf8A0Fa2Y1Ir/RPCVHOhGcup/FdaKjUlFD6KKK6zMKKKKACiiigAooooAKKKKACiiigAooooAKKKKACiiigAooooAKKKKACiiigAooooAKKKKACiiigAooooAKKKKACiiigAooooAKKKKACiiigAooooAKKKKACiiigAooooAKKKKACiiigAooooAKKKKACiiigAooooAKKKKACiiigAooooAKKKKACiiigAooooAKKKKACiiigD8fP+Cl4z+1hrn+7B/wCklrXgIOWr37/gpd/ydjrn+7B/6SWteAL981+D5y39erf4j/QPgb/kn8F/17j+Q88Y7V3/AMCv2ZfFv7ROufYfDttZkrbvdNNd3SwxKiOEJ43NncwGNvf05rz6UHZx17V9kfsvXKeMv2UZPDngW+t9G+JhsZH+1W0wivZIxqaO6gx7puY8Hhfur6U8qwdPE1XGd9Fey6+SM+MM5xOW4GNfC2UpSUbyV1FP7TXZHj3xX/YK+Inwf8FDxFqFro95ow+9NY34cr+8WPlZFRvvuBwOx/HyuTwdqcF/HaNZstzKu9I/MT5hzzndjse/avrLXvhb8T/Bv7KrP4++Ib2kDY26PrN7++k/0wZ4uYPN4Jjfh+hXtgV6p4k/ZptvFv7SfhfxPpekeHB4Mg0mUXXl2a+S0ii7HO2MxE5KDk56e1e1Ph2FWSVG8fh0dr6nwdDxGr4Wi/r0qdZXmlOCkk3FJpa21d+h+fmleAtY12eaK009pngZlkAmjXawwCOWHqOldf8ACP8AZV8cfG6/1C30HSoJZNKkjiu/PvIohEzlgP4ufuNnGelfWPwFtmT4l+LtEX4f6beaRL4hvFj1XTvDqXdxbAyogUvIrRKir8+AnBIPQkV6r8IfDsPwd+L3inTdOv8ARpW1qCxvI4TaWaTwSvNeL5brFCmGGFG3Bwc4rbC8M0vdnUk2m2nb/gnFmvirjaaq0sPSipJRavd9Ve9n2fkfmZZ+AtY1HVp7KCxeW6ttvmxiWMbdw3DksB09KgXwpqMmtPp62jfb48Zi8xOMru67tvTnrX3gvw11j/hnua88E6D4Lb4pHb/aovNEiupx/pOIdtv5L7P9H35/djIw3OMjvPDfwr+H9v8AHDwlFq2h+Dn8XT/bP7SgtreEQNi3Ji3wYAH7rBGUHOT71C4VTsoz+/zey8+5o/FycFOU6ClZOyV73irttXtyPo9z83Ln4e63aX8ds+nOk8wG1POiO/JwOd2Bz71Tn8M39lri6dJbMl85AWLehyS20c529eOtfoBqGtafJ8EtN8Sv4c8Cya8fFsWlec2hWgC2vkeZtCBAv3+dxGe2a7Gz+FXw1v8A4xaDfat4f8MJqd94Xt7xEjtoI0luXn3ApFwjOWzgbTnpjHFC4WpN2jPt9z/Ua8WcRShJ1sMtL/Dd6r1ex+aWoeD9T0vWEsLizaO7lzsi8xCWwu48hsdDnk1Pqnw91nQbM3N7p7wwp1czRtjJA6KxPUjtX31480XwTrHjrwtDqHgC40rWf9L8u6v9FhsfP/dqTvRNqNhAAPk4yD1Oa8N/4Ka+OJ9G+Md74T0ux8NaZoKbMR2GkWsL8wW0vMqpv++T/F3I6cVyZhkNPC0pVJzd4tJJW1uup7XD3iFis3xVHC0qCXOnKTd9otL3dXffS55b8Cv2RvGn7Q0N/LoMGmxWumQRzzz312IkCSZK4Ch2JIVj93t64FaPxW/YU+IXwbfR21W00qW11+5gtLS5tL4PGZJt2zcGCuBhCSdvAx34r3XwLDe/FL9k5tJ+E2oLoni2xstPfVV06YxXd9GLO4RlPkb5T+9K9l5Yc5xVDx38PPiH4I+HPw5/4Tz4gC8uv+Eh0xk0e/vA11GvlNjiWET5BV05cjJP8WTXTTyfDSoKTjJtq901bc8zFcd5rHHVFGpTgk+VU5RfP8N76XWu/ax86fEj9m7xb8LLoxapZ2zbEhcyW90jriWJZE64P3WGeOv51y0XhHU57GK5W0ZredtkbeZGNxLbcY3Z+9xzX6EeFPEcfxE/ar/4Q3XNO8N6l4dGi2knl3OmW7zFlsLdwTMV8zIYn+Lpx04p/wAKvgX4e+IXwG8Lx6PpPhqe5sdVtpb2Q20csixDU1dt7BWbBjSQfNxjI6Zq58MUqkn7CWmuj3urfgY0vFPFYehH69SV3yNtXtaSdnq9Hdeh+fCeB9XbUEtPsLfaJBlY/Nj+YYPfdjse9W2+FfiJG2/2VICeQPtEP/xdfd/xG8DaD4M/auSG30bwyVstBu7hI/sEL25lWxuZEJQrtOGCnkdQKxv2afGK+NPhz8Wtb1nSPB15qPh2TWE0svoVmsdusEUbwgIIwGwxPUEkHBzWX+rVJSUZyabv+B1f8RPxc6KxNGhFx5Y73veTsuux8L6/4Zv/AAlPHFqdqbWWcbowZEfI6fwkj86pZzX1h+3HZad4j+HugaudI0Czv4m1OEvp1jHa7ljjtXTIjABILvgn1r5OAwK8HM8HHC1/ZJ3TP0LhbO5ZrgI4utFRldppbaNrT7hVIzXof7JAx+0n4O/7C1n/AOlUNedivRf2Sf8Ak5Lwb/2FrP8A9KoaywC/2ml6nXxAv+E2s/7svyP2w0If8SSz/wCuCf8AoIq3VTQv+QJZ/wDXBP8A0EVbr9/h8KP876vxv1CiiiqICiiigAooooAKKKKACiiigAooooAKKKKAPgf/AIKi/wDJZYv+wRbf+j5K+Wz1r6k/4KijPxli/wCwRa/+j5K+X7O1k1C+gtoVMk9zKsMSgZLOxwBgcnn0r/P3xZTlxRiUlduTX/kzP7D8PGlkFCctlFfLREZOaK9LP7G3xJBA/sC6GfWxuv8A43XE+LfBWp+BNRS11W2e3mkjEqgxumVJI/iAPUGvi8ZkOY4OCniaMoR7tH0+EznBYmXJh60ZSXZmUBmitDw14UvvF9zJBZbFkiXexlDAEZxxgH1rPkR47qSLaWaJyrbBkAg4rzpYesl7Rx0e2m9jrjWpuTpxkm1+vcKK0dB8Har4pWdtPsbm5jtV3SukLuqfMq8lQccuvX1HrVjU/AGqaNof9oXKxLDv8sqA4kByVxgjHUetbLLsV7JVPZvl3vZmP13DKahKolLa1/wMYDFFGCFztYepI4FABboN3uBmufkkl7y1/Q61KL0uv0Cik+6PmBHPfj/Irrvh/wDAfxb8VNPlu9C0e8urWBxE8q2kzoWIB4KIw6EH8RXVg8BicXU9lhoOcuyXQwxWLoYeHtMRNQXduyOSozWr4x8B6z8PtWNlrOm3tjcr/DLbvFv4DcBwD0YfnWUwKk/I3qeOn1rLEYatRqOlUi01un3Lw9alXpqrSaaewUUAMRnY2OpbbwB9a0oPBmrXnhufWI7C5/su2cRvcmF/LDHaAN+Nv8a9+9TTwlepfkjeyvpf72KVelHWUktbavr2M0DNFJ8zpuRH2+uOKUAyLlFZvcDIqOWV9NmbNxav0DHNFDKyn7rE98D7ooX5vugsR1AGTScZdmTeL0CjGaVAXPCsT6Y6UBSOPLl+m3rT9m3olsNNPSIlOtP+Qjaf9d0/nTSCDyrL7EcinWn/ACEbT/run86qipKrC/dfmTVa9nLl2P1+8EfLpD4/57H+S1tp92sTwV/yCX/67H+S1tp92v8ATrLv92h6H8H4r+LIWiiiu05wooooAKKKKACiiigAooooAKKKKACiiigAooooAKKKKACiiigAooooAKKKKACiiigAooooAKKKKACiiigAooooAKKKKACiiigAooooAKKKKACiiigAooooAKKKKACiiigAooooAKKKKACiiigAooooAKKKKACiiigAooooAKKKKACiiigAooooAKKKKACiiigAooooAKKKKAPx8/4KXf8AJ2Ouf7sH/pJa14Av3zXv/wDwUu/5Ox1z/dg/9JLWvAF++a/B85/36t/iP9A+Bv8Akn8F/wBe4/kPbt9K0vCPjfWvh/q41DQdX1PRL9VZBcWN09vKFbqNykHB7is1u30pK86M5RalF2Z9HOlTqw5KsVJdmro6Pxt8Y/F3xLt1i8ReKPEOvRJnbHf6hLcKudpPDMR1Vf8AvkelXrH9oj4gaZpYsbfxx4ugs1BAgj1adYwCSSNu7HJJ/OuOorRYmspcym7+rOX+ysD7NUvYw5VqlyqyfkrHW6B8ffHfhRrg6Z408VaebuVppjbapNH5rtjczYbknAyfYVAvxt8ZR68+qf8ACW+JRqMhVnu/7Sl85irMyktuzwzMR7sfWuZpJBmNvpTjiqy+29PNlRynA3b9jDX+6v8AI9G0vx18XdAs7jxPZax8QbSyudvnarDcXSRTbSYl3Sg7TgkoOepxVez1T4qajOfGNvc+OZ27a2kty/8A0x/1+cf7HX2r7M+DXhvwt4n/AOCc8dr401f+wdBOd921rLcBP+Jm5HyxEN98IOv8XoDXSaH4R8H6B+xWtj4K1n/hJNBOcXC2k1qG/wBPLfdlJb75cdf4fQivscPw9Uko/v3Zx5rN6p+Svt5n4ji/ETD4eVSKwEHONV02+R8jj/ita/8AdPz31r4ieMdBtF0vUNd1+0hScXS2k15IqLKAV8wKTjdgEZ68U61+LfjLxBrunyW3ibxLe6pbCO3smivppJ4grfu0jwSRhjwB3Nfe2iWPgfwJ+0D4ggudDv01J7e5SxeNL2WNGNyBGGdVaMfMpzvIx1PFMD+IvBX7UHhXVbnwg0elao1paw6gdTjIbzLvev7sZb7oLcgelR/q9UVpfWHq7O13+uhsvEnCtezWAipcnMm3FJvsrrX7z4T8W/Gbx7Pr8R8ReKvFh1Owzs+3ajP51tvUZxubK7l2/UYrn/EvjTU/Hd+1/rGq3mr3rY8y4u7kzyNwFGWYk9FA/AV+l17o9jJfeK/Hlx4I1HU/E2nfY/s+mJNcJO+8eQ2Aq84j+b/VngdutcZ4s+GWg/Fzwz4M8d6v4Zn8HeIpft2/S725nM8+HEAwHMeMIgbiPo4+pVfhurdr21/W70va99r+Rrl3ihg4uMlgFFbXi46SceaySV+XTfa58G+B/ilrvw1vZZ/DniTVtBnuVCSvp989u0gByFJUjIzVjxZ8XfE3jvU7a51zxNrms3lmyS20t7fyTvA6klGXcxwQWYgjpk+tfoPqvxM8KeOfi94k+Gdx4ZTTTcw6jp1lcSarK3nzpNHbRqEIXk+aTgv2x7jzD9r74f8Ah39lr9mx/DZtI18Q61qJmVTcvvWGW1ljDbNzgjfF6j8K5a+RVKNGThX5lHdK6V/S534Lj7D4rHU6VXLrVqlraxk3F9b22R8k2nxb8Vafr39qQeJNdg1TYIjeR3siz7AoQLvBzgKAMegA7VP4a+OPjXwZaPBo/i/xNpUEuA8dpqU0KNjJGQrAdWP5muWjBWFQfQUtfNqvVi7czvvufqkstwco/vKMfRxXy6dOh0d78Y/F2p6qb+58U+ILi/aNoTcy38rylCpQruJzgqxBHoSKr6R8TPEegWN9bWOv6xZ22pmQ3kUF28aXZkAD+YAcNuAAOeuKxKKXt6rd3J/exrLcIo8qpRt/hXTboa2r+Ptd8QWSW1/rOqXtvGXKRT3TyIpcKHwCf4gqg+u0elZI4/8Ar0UVnKcpO8mdFKjTpR5KcUl2SsKoya9E/ZJ/5OS8G/8AYWs//SqGvPE616H+yT/ycl4N/wCwtZ/+lUNdOA/3ml6nmcQ/8i2v/hl+R+2Ghf8AIEs/+uCf+girdVNC/wCQJZ/9cE/9BFW6/f4fCf53VfjfqFFFFUQFFFFABRRRQAUUUUAFFFFABRRRQAUUUUAfA/8AwVFH/F44/wDsEWv/AKPkr5x+Hf8AyU3wxjr/AGxa/wDo1a+jv+Coo/4vLF/2CLX/ANHyV8uxyNDMrocPGwZTjoR0NfwH4oVvZcW16v8ALO/3SZ/X3AdP2nDVKC+1G34bn6UftEqn/CV2OW+IC/6KP+QINW8n77fe+yjZu/3vmxjtivG/2c/h3b+O/FerReNNBkvfDcUNvvvvENvKk9sx+0Hak0+JFUssXAO3LHuTXyyvxb8Ur01jr1/0SH/4mqWo+ONZ1i2aG6v/ADoXxuXyEXODnqBnqBX1GYeK+XYnMIY2WFbUW3yPl5ZXVrS3uvkfOYLw2x+HwssJHERvJJcy5rqzvptZ/M+tf2XvA1zqf7Sfi+x8ReD9L0/SLOK7XTFTS0gjlRbqNQQwHz4Xbgkn7x9arfAjwlovirVfEWmv4MsorpSiQ3P/AAjzTiR8yLzJNHJEoJIO4bc4znANfLA+JHiHKn+0+Y12qfs0XA4/2fYVDpvjbWNEEv2K++z/AGgYl/cI+/rjqOOp6V5tLxHy2nKnF4eTjFyb+Fu0lstLK35G9bgDHzVSUcQlKSitOay5Xvvrc+vvAeha14Hj8c6VaeHtDlv0eSa1gt9OtZpZE+126cpEOgUMSpAwQDgYFdxpXww0vX/hL4euNb8M6aupXmpT/bIXsVTJzcnBjxgfdU4x2r4FsfFGp6ZqEl3b3nlXc2fMl8pG3ZOTwRgZNWJPiDr0x+bUt2DuH+jxjnuenufzrtwvitl9Kl7OeGlJJNJNxa1d+25jX8N8bUnzrERTune0k72tbfbqfXms+HfDfiTxF8SvD954R8J2GmaHZ2zwT2mlx289uHtmldvMXkYK5B7CqvgT4X6bpvg3wyvhfwX4f8S6XeXMQ1C/udPS/lQtfGOVTKeVCwhTjsDnvXyP/wAJdqn2iWX7Xl7jAmPlJ+8AGAOnHHHFfQ3wF/bR0D4b/CGz0HVtEa6u7O4afzRcyqJD5vmpwkRAwcDr2564rvyHjjJcwxreOhGjpK0mo3+JNRWm1tDjzzhLNcDhEsE5VtY3ir/y2bevfU5D9tzwppXhL4xWFtY6dY6VaPbxvPBawiKMZnmDcL7AD8BXoPxIi8ZWvwm+H/8Awp5daFk+lg6x/wAI8rc3Xk2/M3l878f3vfHevC/j58YJ/jX8Q59XeL7PbDdFbwlg22PzZHXnap6PjkZrm9A8X6t4TjlTS737Ik7b5B5KSbj/AMCBr4+rxbgaGaYv2Cfs6trSp2jKNnf3fJ7PyPqqPDOOxGXYVVXH2lO94zvKLuuvmunmfTWh6D4o8QftIaBB8UbPS7xn+0fubtbN9+LUn51j5PSIjd6DFamq/AOPw1f/ABLvr7wZbQ6dHaW50oz2GI2YWspkEXAOd4GdvOcd6+R59TubvUPtcs2+6/56bAO2OnTpWhffEHXtUgaK51LzYmBDL9njXIPB5ArswniDlVKE41sNOpK7kpScZSd1b3m4628jir8EY+U4So14xSSTjFSjHR391J/mfYfgb4caR49+EIjsfBllYanHp3Bfw0saTMIV+YzXMRHLMPmDgcZHc1RtrC/t/wBlrxHpf9g6NLdWmuC2lhtbCGUBE8gZbywVzuA5+ntXyXF8QtfttO+xx6lstNnl+X9njPy4xjOM9Kq2PiXUdLhljt7ryo7hi8o8pTvY4JPI46Dp6V1x8TMDTgoxw0ruDi7OKWq7Jfqcr8O8e5ScsRGzkpL4m9Pn+h9jeMfhtJ4d+KWgaP4R+G/hvV/A9x9o8+/OirebtsIdd1wckfvi6jkZxt7Vrar8LPA/gTwF4xv/AA94d8N6l/Z/2L7M1zbJeJFvkCtgtnrubv2HpXxTYeOdb0rT/slvqHlWo6R+RGcc56kZ6moLLxHqGnafJaQ3Wy1lxvj8tTnByOSM9a0fidlcJSlDB3bTtfk9xuKS5fd2vqJeH+PmoKWKSUbX+L37Su3LXV200Ptu58G+G4fiZoekL4K8JfZdb0C3vrr/AIlSF/Nll2OUP8Ix029O1aPw7+BHw90mw8Rzx6FYXF5DrVxCUFgNQkgjynyLEySbVB44XjPUZr4Y/wCEx1f7THN9u/exKI428lPlUHIGMU7T/G2saRqEl3a33k3U2d8nko27JyeCMda6KfitlbqKdXAp26+5demhz1PDbMnTcKeMs9OsrN/efcPhD4TfDuf4i+I5LDw/pd7PD9lNxaXmm7Ut3aI5xC6KE3HccKAOBxjFeV/sueJLP4tXl9HrHgnw81zL5aQXFh4XEi27ESjPyxvCudqjLjHB7gmvnEeNNYF9Pci+/wBIuiGnfyE/eEdOMYH4VFoviXUfDU7Safd/ZWk++fKV88ED7wPqfzrzK3iXgp4ijKnhuSnFycklH3rv038+56FLgDFxw9SlPEc85xik3ze7bfXz/Lc9X/bL+GU3gz4mPKllbWVk1nDIixQ29qWBYpuMMSpg7gR9wEgA9Oa8etv+Qla/9d0/nU2ra1d6/em5vpvtNwQFMmwJwOnAAFQWv/IRtP8Arun86/O86zDD47NHisNFxjKV0m02tfJJH2+UYCrgsujha0lKUVa662Xmfr94K/5BL/8AXY/yWttPu1ieCv8AkEv/ANdj/Ja20+7X+kGXf7tD0P4mxX8WQtFFFdxzhRRRQAUUUUAFFFFABRRRQAUUUUAFFFFABRRRQAUUUUAFFFFABRRRQAUUUUAFFFFABRRRQAUUUUAFFFFABRRRQAUUUUAFFFFABRRRQAUUUUAFFFFABRRRQAUUUUAFFFFABRRRQAUUUUAFFFFABRRRQAUUUUAFFFFABRRRQAUUUUAFFFFABRRRQAUUUUAFFFFABRRRQAUUUUAfj3/wUvb/AIyw1z6Qf+kltXgYXBr3z/gpeP8AjLTXV4yFg/8ASS1rwQjFfg2cXeNqNdWz/QLgd/8AGP4L/r3H8gJzSZpSuBSV5p9VZBmjNFFILBmjPBoooCx2z/HvWm+GX/CJeRpf9mf89PKk8/8A1vm/e37fvf7PT86n8N/tGa94W8Cf8I7bW+ktYj+OWGQy/wCsMnUSAdSe3T864Kiur65WT5uZ3tb5djyqmR4CcHCVJWcub/t7uereGf2x/FXhXxvca9bWXh9ry5Ro3SW3mMQDSCQ4AlB6gd+lZvxG/ab8Q/E7xrpuvahbaLFeaXLFPCltBKsRaORpF3BpGJGWOcEcY6V53RWn9pYpx5XN2OVcLZSp+0VCN7Wvrt2PXv8Ahtrxd/wsYeJ/sPhz+0U6R/ZpvJOYvK6edn7v+11/KsL4h/tK+IPiX8QbLxLf22jxahp/meUlvDIsJ3xrGdwaRj91Rj5hzn6V59SlMClPM8VNcjm7P0Ko8L5XRqRrUsPHmS5fl23PWfhF8YNO1H482Hi3xhew6WulXw1NEtbWV1uJPtEcrJxvKj5ODg4z3pf20/2iYv2lPioupWlvFBptjCLW3dS+6VUmmZWO8KclZBxtH9K8l2Ee/wBTS7aqeZ1ZUHhr6N3fdmS4XwUMwjj1fmhHliukV5f8G43+L8KKUjjtQRg1wXPo736iZozRRQKwZooooCwqHBr0T9kj/k5Pwb/2FrP/ANKoa87Fehfskybf2k/Bn/YWs/8A0qhrswCbxNO3c8biGyy2vbfll+R+2WhnGi2f/XBP/QRVsHNU9DO7RbP3gT/0EVbHSv36Gx/nfV+N+otFFFUQFFFFABRRRQAUUUUAFFFFABRRRQAUUUUAfA//AAVFOPjHH/2CLX/0fJXy2etfUf8AwVFfHxmj/wCwRbf+j5K+XduRn8a/z88Wf+SoxL6cz/Nn9ieHSf8AYOH5uyt9yEooHNFfmyd9T7jXd6BRRRRy6WB67gTmiiinYOlrhniiiijl0sK2twzRRRRy6WFyoKKKKEmivmKGwKTNFFHKKyCiiinraw3qrMKKKKAWmwUUUUtRWCn2gzqNp/13T+dMp9mCNStPedP51rQj+9i/NGdTSDXkfr74I/5BEmf+ex/ktbaH5aw/A5/4lEn/AF2PX/dWtqPg1/pxl/8Au0D+D8V/GkPoooruMAooooAKKKKACiiigAooooAKKKKACiiigAooooAKKKKACiiigAooooAKKKKACiiigAooooAKKKKACiiigAooooAKKKKACiiigAooooAKKKKACiiigAooooAKKKKACiiigAooooAKKKKACiiigAooooAKKKKACiiigAooooAKKKKACiiigAooooAKKKKACiiigAooooAKKKKAPnT9rP8A4JweFv2s9ettVvNT1Pw7qUTlpZ9PihzcApGgViV3HAjXGSe9eTf8OMvB46ePPF//AH7g/wDia+5KK8rEZHgK83Uq002/U+yy7xB4iwGGjhMJipRpx2Wjt96Z8Nj/AIIZeDgP+R88X/8AfEH/AMTR/wAOM/B//Q9+Lv8Av3B/8TX3JRXN/qxla2or8f8AM7P+Io8Vf9Bkvuj/AJHw5/w4z8H/APQ+eL/++IP/AImj/hxn4P8A+h88X/8AfEH/AMTX3HRT/wBWcr/58r73/mH/ABFHir/oNl90f8j4c/4cZ+D/APofPF//AHxB/wDE0f8ADjPwf/0Pni//AL4g/wDia+46KP8AVnK/+fK+9/5h/wARR4q/6DZfdH/I+HP+HGfg8f8AM+eL/wDviD/4mj/hxn4PH/M+eL/++IP/AImvuOij/VnK/wDnyvvf+Yf8RR4q/wCg2X3R/wAj4c/4cZ+D/wDofPF//fEH/wATUc3/AAQ78GW6Et498XgDr+7h/wDia+5Sc9K+Zv8Agru7RfsJ+NCrMjf2dfcqxB/5B933FaUuFcrnNQ9ktfX/ADMq3itxVTg5/XJaeUf8jzSP/ghv4MmTK+PfF+D/ANM4f/iad/w4z8Hf9D34u/79wf8AxNe5f8E3pDJ+xp4PLMzH/Tcljkn/AE64717lRV4WyyE3D2S09f8AMVDxU4pqQVT65LVdo/5Hw2f+CGfg8/8AM+eLv+/cH/xNH/DjLwd/0Pfi7/v3B/8AE19yUVn/AKs5Z/z5X4/5m3/EUeKv+g2X3R/yPhv/AIcZeDv+h78Xf9+4P/iaP+HGfg//AKHvxd/37g/+Jr7koo/1Zyv/AJ8r8f8AMP8AiKPFX/QbL7o/5Hw5/wAOM/B//Q+eL/8AviD/AOJo/wCHGfg//ofPF/8A3xB/8TX3HRR/qzlf/Plfj/mH/EUeKv8AoNl90f8AI+HP+HGfg/8A6Hzxf/3xB/8AE0f8OM/B/wD0Pni//viD/wCJr7joo/1Zyv8A58r8f8w/4ijxV/0Gy+6P+R8Nt/wQy8Ht/wAz54u/GOD/AOJrvv2b/wDglP4O/Z2+IA8RLres+IrqEJ9nj1CKApbssiSBx8hOcoOhFfU1FaUuHsupTU4UkmvX/M5cb4icR4yjLD4jFylCWjWn6IjEe1MAYAGBjtT0G1aWivZPiwooooAKKKKACiiigAooooAKKKKACiiigAooooA81/aA/Zg0D9oXSbmDUzLaXU9ulul7BHGZoQknmDBZSeue/evEU/4JF+GFH/I4eJT77Iv8K+uKK+RzjgLIM1r/AFnMMNGc9ru6/Jo+iyzi3N8up+xwVdwj20/VM+SP+HRvhj/ob/Ev/fEX+FH/AA6N8L/9Df4l/wC+Iv8ACvreivI/4hLwja31KP3y/wDkj0f+Ih8R7fWpfh/kfJH/AA6N8L/9Df4l/wC+Iv8ACj/h0b4X/wChv8S/98Rf4V9b0Uf8Ql4R/wCgKP3y/wDkg/4iHxH/ANBUvw/yPkj/AIdG+F/+hv8AEv8A3xF/hR/w6N8L/wDQ3+Jf++Iv8K+t6KP+IS8I/wDQFH75f/JB/wARD4j/AOgqX4f5HyR/w6N8L/8AQ3+Jf++Iv8KP+HRvhf8A6G/xL/3xF/hX1vRR/wAQl4R/6Ao/fL/5IP8AiIfEf/QVL8P8j5Em/wCCTPhO3kCv4x8Sgt0Hlxf/ABNOH/BJPwq3/M4eJf8AviL/AOJr5j/4Lp3MsP7b/wAAFSaWMHxD4dyFcqG/0+964r9NfhWN3wy8OE99Ktf/AEUtdVbwc4Rp04VHg4+95y/+SOOh4ncRVK06X1mXu/4f8j5o/wCHR3hfP/I3+Jf++Iv8KP8Ah0b4X/6G/wAS/wDfEX+FfWxOKWuReE3CP/QDH75f/JHZ/wARD4j/AOgqX4f5HyR/w6N8L/8AQ3+Jf++Iv8KP+HRvhf8A6G/xL/3xF/hX1vRT/wCIS8I/9AUfvl/8kH/EQ+I/+gqX4f5HyR/w6N8L/wDQ3+Jf++Iv8KP+HRvhf/ob/Ev/AHxF/hX1vRR/xCXhH/oCj98v/kg/4iHxH/0FS/D/ACPkj/h0b4X/AOhv8S/98Rf4Uf8ADo3wv/0N/iX/AL4i/wAK+t6KP+IS8I/9AUfvl/8AJB/xEPiP/oKl+H+R8kf8OjfC/wD0N/iX/viL/Cj/AIdG+F/+hv8AEv8A3xF/hX1vRR/xCXhH/oCj98v/AJIP+Ih8R/8AQVL8P8j5IP8AwSN8Mf8AQ3+Jf++Iv8K0PCP/AASn8J+GvE1nqE/iLXdRWzlSVbeaOHy3KuGwcqeDjB+tfU9FaUvCrhOlNVIYKN1trL/5Iirx9xBUg6c8VJp+n+RDFB5YwFCDOcLxUiDFOor9AUUlZHx/mFFFFMAooooAKKKKACiiigAooooAKKKKACiiigAooooAKKKKACiiigAooooAKKKKACiiigAooooAKKKKACiiigAooooAKKKKACiiigAooooAKKKKACiiigAooooAKKKKACiiigAooooAKKKKACiiigAooooAKKKKACiiigAooooAKKKKACiiigAooooAKKKKACiiigAooooAKKKKACiiigAooooAKKKKACiiigAooooAQDDV8yf8Fe/+TE/Gn/YOvv8A033dfTf8f4V8yf8ABXv/AJMT8af9g6+/9N93XTgv48F5nNjf4EvQ6r/gm9/yZl4O/wC33/0uuK9yrw7/AIJv/wDJmXg7/t9/9LrivcanFfxp+rHhP4EPRBRRRWB0BRRRQAUUUUAFFFFABRRRQAUUUUAFFFFABRRRQAUUUUAFFFFABRRRQAUUUUAFFFFABRRRQAUUUUAFFFFABRRRQAUUUUAflP8A8F1v+T4v2f8A/sYfDv8A6cL2v05+Fq7vhj4c/wCwXa/+ilr8xf8Aguv/AMnxfs//APYw+Hf/AE4Xtfp18Kv+SY+HP+wVa/8Aopa9PGf7tS9GeVg/96rfI3gMilpE+7S15h6oUUUUAFFFFABRRRQAUUUUAFFFFABRRRQAUUUUAFFFFABRRRQAUUUUAFFFFABRRRQAUUUUAFFFFABRRRQAUUUUAFFFFABRRRQAUUUUAFFFFABRRRQAUUUUAFFFFABRRRQAUUUUAFFFFABRRRQAUUUUAFFFFABRRRQAUUUUAFFFFABRRRQAUUUUAFFFFABRRRQAUUUUAFFFFABRRRQAUUUUAFFFFABRRRQAUUUUAFFFFABRRRQAUUUUAFFFFABRRRQAUUUUAFFFFACfx/hXzJ/wV7/5MT8af9g6+/8ATfd19N/x/hXzJ/wV7/5MT8af9g6+/wDTfd104L/eIepzY7+BL0Or/wCCb/8AyZl4O/7ff/S64r3GvDv+Cb//ACZl4O/7ff8A0uuK9xqcV/Gn6seE/gQ9EFFFFYHQFFFFABRRRQAUUUUAFFFFABRRRQAUUUUAFFFFABRRRQAUUUUAFFFFABRRRQAUUUUAFFFFABRRRQAUUUUAFFFFABRRRQB+U3/Bdf8A5Pi/Z/8A+xh8O/8Apwva/Tr4Vf8AJMfDn/YKtf8A0UtfmL/wXX/5Pi/Z/wD+xh8O/wDpwva/Tr4Vf8kx8Of9gq1/9FLXqYz/AHal6M8rB/71W9UbyfdpaRPu0teWeqFFFFABRRRQAUUUUAFFFFABRRRQAUUUUAFFFFABRRRQAUUUUAFFFFABRRRQAUUUUAFFFFABRRRQAUUUUAFFFFABRRRQAUUUUAFFFFABRRRQAUUUUAFFFFABRRRQAUUUUAFFFFABRRRQAUUUUAFFFFABRRRQAUUUUAFFFFABRRRQAUUUUAFFFFABRRRQAUUUUAFFFFABRRRQAUUUUAFFFFABRRRQAUUUUAFFFFABRRRQAUUUUAFFFFABRRRQAUUUUAFFFFABRRRQAn8f4V8yf8Fe/wDkxPxp/wBg6+/9N93X03/H+FfMn/BXv/kxPxp/2Dr7/wBN93XTgv8AeIepzY7+BL0Or/4Jv/8AJmXg7/t9/wDS64r3GvDv+Cb/APyZl4O/7ff/AEuuK9xqcV/Gn6seE/gQ9EFFFFYHQFFFFABRRRQAUUUUAFFFFABRRRQAUUUUAFFFFABRRRQAUUUUAFFFFABRRRQAUUUUAFFFFABRRRQAUUUUAFFFFABRRRQB+U3/AAXX/wCT4v2f/wDsYfDv/pwva/Tr4Vf8kx8Of9gq1/8ARS1+Yv8AwXX/AOT4v2f/APsYfDv/AKcL2v06+FX/ACTHw5/2CrX/ANFLXqYz/dqXozysH/vVb1RvJ92lpE+7S15Z6oUUUUAFFFFABRRRQAUUUUAFFFFABRRRQAUUUUAFFFFABRRRQAUUUUAFFFFABRRRQAUUUUAFFFFABRRRQAUUUUAFFFFABRRRQAUUUUAFFFFABRRRQAUUUUAFFFFABRRRQAUUUUAFFFFABRRRQAUUUUAFFFFABRRRQAUUUUAFFFFABRRRQAUUUUAFFFFABRRRQAUUUUAFFFFABRRRQAUUUUAFFFFABRRRQAUUUUAFFFFABRRRQAUUUUAFFFFABRRRQAUUUUAFFFFACfx/hXzJ/wAFe/8AkxPxp/2Dr7/033dfTf8AH+FfMn/BXv8A5MT8af8AYOvv/Tfd104L/eIepzY7+BL0Or/4Jv8A/JmXg7/t9/8AS64r3GvDv+Cb/wDyZl4O/wC33/0uuK9xqcV/Gn6seE/gQ9EFFFFYHQFFFFABRRRQAUUUUAFFFFABRRRQAUUUUAFFFFABRRRQAUUUUAFFFFABRRRQAUUUUAFFFFABRRRQAUUUUAFFFFABRRRQB+U3/Bdf/k+L9n//ALGHw7/6cL2v06+FX/JMfDn/AGCrX/0UtfmL/wAF1/8Ak+L9n/8A7GHw7/6cL2v06+FX/JMfDn/YKtf/AEUtepjP92pejPKwf+9VvVG8n3aWkT7tLXlnqhRRRQAUUUUAFFFFABRRRQAUUUUAFFFFABRRRQAUUUUAFFFFABRRRQAUUUUAFFFFABRRRQAUUUUAFFFFABRRRQAUUUUAFFFFABRRRQAUUUUAFFFFABRRRQAUUUUAFFFFABRRRQAUUUUAFFFFABRRRQAUUUUAFFFFABRRRQAUUUUAFFFFABRRRQAUUUUAFFFFABRRRQAUUUUAFFFFABRRRQAUUUUAFFFFABRRRQAUUUUAFFFFABRRRQAUUUUAFFFFABRRRQAUUUUAJ/H+FfMn/BXv/kxPxp/2Dr7/ANN93X03/H+FfMn/AAV7/wCTE/Gn/YOvv/Tfd104L/eIepzY7+BL0Or/AOCb/wDyZl4O/wC33/0uuK9xrw7/AIJv/wDJmXg7/t9/9LrivcanFfxp+rHhP4EPRBRRRWB0BRRRQAUUUUAFFFFABRRRQAUUUUAFFFFABRRRQAUUUUAFFFFABRRRQAUUUUAFFFFABRRRQAUUUUAFFFFABRRRQAUUUUAflN/wXX/5Pi/Z/wD+xh8O/wDpwva/Tr4Vf8kx8Of9gq1/9FLX5i/8F1/+T4v2f/8AsYfDv/pwva/Tr4Vf8kx8Of8AYKtf/RS16mM/3al6M8rB/wC9VvVG8n3aWkT7tLXlnqhRRRQAUUUUAFFFFABRRRQAUUUUAFFFFABRRRQAUUUUAFFFFABRRRQAUUUUAFFFFABRRRQAUUUUAFFFFABRRRQAUUUUAFFFFABRRRQAUUUUAFFFFABRRRQAUUUUAFFFFABRRRQAUUUUAFFFFABRRRQAUUUUAFFFFABRRRQAUUUUAFFFFABRRRQAUUUUAFFFFABRRRQAUUUUAFFFFABRRRQAUUUUAFFFFABRRRQAUUUUAFFFFABRRRQAUUUUAFFFFABRRRQAUUUUAJ/H+FfMn/BXv/kxPxp/2Dr7/wBN93X0x5y5r5m/4K8tu/YS8af9g6+/9N93XTgv94h6nNjv93k/I6z/AIJv/wDJmXg7/t9/9Lrivca8N/4JwPj9jHwf7fbf/S64r3DeKWK/jzXm/wAwwf8AAh6IdRSA5pa5zpCiiigAooooAKKKKACiiigAooooAKKKKACiiigAooooAKKKKACiiigAooooAKKKKACiiigAooooAKKKKACiiigAopM0hlA70B5H5Uf8F1/+T4v2f/8AsYfDv/pwva/Tr4Vf8kx8Of8AYKtf/RS1+Yv/AAXXP/GcH7P/AP2MPh3/ANL72v05+FZx8MPDf/YKtf8A0UtepjP92o+jPJwX+9VvVG+n3aWo1mGKkry076o9YKKKKACiiigAooooAKKKKACiiigAooooAKKKKACiiigAooooAKKKKACiiigAooooAKKKKACiiigAooooAKKKKACiiigAooooAKKKKACiiigAooooAKKKKACiiigAooooAKKKKACiiigAooooAKKKKACiiigAooooAKKKKACiiigAooooAKKKKACiiigAooooAKKKKACiiigAooooAKKKKACiiigAooooAKKKKACiiigAooooAKKQODRuFAC0UmaWgAooooAKKKKACiiigDmfih8QLP4S+BdT8SajHcSado0Et5dmFQ7xwxRtI7AEjJCoeBz7V8Z/t1/tp/Dr9qn9gfx0/g3Wp76W3sNQjngnsZ4HhddOn3ISyBSR5qDKsRzwSBmvuq9so7+zlt7iNJYbhGjkR1DK6sMEEHggivwk/wCC1f7Ed1+zT+0ReeMtNt4IPDXi+d52MEsalbq5ubyYp5aqhA8uMc8+mTXrZPQpVqyhN2fQ8bOcTVo0XOCuuvkfoh+zp+3j8Mf2TP2KvB3/AAmmu3NlcH7bst7fT7i4kk/0+TOCqFeBKh5YdTjkYr658FeJ4/G/h221WCGe2hud21JgocbWZDkKWHVfWvxP/wCCHf7C037RXxtPj7XbS2u/C/hv7onkikafz4L2A/u3R84kjXrt6Z5r9xlXa39KnN6FGlXcYSu73f8AkVk2IrVqCnNWWy/zH8CloxRXlnrhRRRQAUUUUAFFFFABRSE4o3CgBaKQuBQDkUALRRRQAUUUUAFFFFABRRRQAUUUUAFFFFABRRRQAUUmeaCcUALRSA5o3CgBaKQnFBOKAFopM80ZyaAAnK15p8eP2pfC/wCzbD9q8V/b7TSwLdpr6G38+K386cQJuVSZD+8K52oeDn1r0oDaK4H9qT4PxftB/s7eNvBUsUUo8S6Nc2MYk27RK0Z8sksrAYcKc4OMZ7VVPlc1z7Gdbm5Hybn5k/8ABZL4naH8Vf2sv2edd0G9+3aXca34bnSbyZIsxteXbg7XUN91lOMZ5r7l0r/gob8M/AOpeCPAcuoale+JtWs7G0it7awk2RSSEQRh3fauDIrDIJxtJOOM/gX+0P8ABjVP2bfjP4h8Hauojn0i+uY7YRzLKHhjnkhVgRgcmM9h9BX61/8ABvp+yTJ8OPgJ4h8Z+ItPspb7xhqNne6a7GOd47ZLdZomztyjZuW43cY6DqfqcywNClg4T5r2287nyuW46vVxk4ctr7+Vj9FUUIOc1LTCRTgc18ofWrRC0UmcijPFAxaKTPFGeKAFopM4FGcCgBaKQnFBOKAFopCcUbhQAtFJnIoDZoAWiiigAooooAKKKKACiiigAooooAKKKKACiiigAooooAKKKKACiikJxQAtFJupaACiiigAooooAKKKKACiiigAooooAKKKKACiiigAooooAKKKKACiiigAooooAKKKM80AFFFFABRRRQAUUUUAFFFFABRRRQAUUUUAFFFFABRRRQAUUUUAFFFFABRRRQAUUUUAFFFFABRRRQAUUUUAFFFFAEaDIor4b/4KE/8ABTnxF+zl8RYvC/gi20mS/tX3X0uo2pmTaYYZEClJQc/vT1UdPz+fz/wWq+M2P+PbwX/4LZf/AI7X2GB4EzbF0IYmlBcs9Vdn5xmvinkGX4qeErzlzwdnZdfvP1mA4pfzr8mD/wAFqfjP/wA+/gv/AMFsv/x2k/4fVfGf/n28F/8Agtl/+O12f8Q2zr+WP3/8A4v+Ix8OfzS/8B/4J+tH50fnX5Mf8PqvjP8A8+3gv/wWy/8Ax2j/AIfVfGf/AJ9vBf8A4LZf/jtH/EN86/lj9/8AwA/4jHw5/NL/AMB/4J+s/wCdH51+TH/D6r4z/wDPt4L/APBbL/8AHaP+H1Xxn/59vBX/AILZf/jtH/EN86/lj9//AAA/4jHw5/NL/wAB/wCCfrP+dH51+TH/AA+q+M//AD7eC/8AwWy//HaT/h9V8Z/+fbwX/wCC2X/47R/xDfOv5Y/f/wAAP+Ix8OfzS/8AAf8Agn6zFcV4H/wU0+CXh/43fsV+PYvERlS38O6JqGuW8ySsnkTQWFyFdtoJZQHYlcHPoa+Ff+H1Xxn/AOfbwX/4LZf/AI7Xm/7Wf/BQL4j/ALZ3wN1n4e+KJtG07QfEFvPaX76VZeVcSwTW8tvJGGlMgUFJm5ChgQMHqDdPw6zyElKKjp5kVPF/hqpFwk5a/wB1f5n6Sf8ABKbTvB0f7D/g698DCdtBvvtvkyTGTfJsv7pWyH5GH3jpX0Z+dfhH+wD+054v/wCCbHwYi8AfD65s77w3b5+zx63bLcS226ee4bDx+WTukuJM7t3AUDGDn3X/AIfVfGf/AJ9vBf8A4LZf/jtKfhznkpOUlG78/wDgBDxf4ahFRhKVl/d/4J+s/wCdH51+TH/D6r4z/wDPt4L/APBbL/8AHaP+H1Xxn/59vBf/AILZf/jtT/xDfOv5Y/f/AMAv/iMfDn80v/Af+CfrP+dH51+TH/D6r4z/APPt4L/8Fsv/AMdo/wCH1Xxn/wCfbwV/4LZf/jtH/EN86/lj9/8AwA/4jHw5/NL/AMB/4J+s/wCdH51+TH/D6r4z/wDPt4L/APBbL/8AHaP+H1Xxn/59vBf/AILZf/jtH/EN86/lj9//AAA/4jHw5/NL/wABX+Z+s/50fnX5Mf8AD6r4z/8APt4L/wDBbL/8do/4fVfGf/n28Ff+C2X/AOO0f8Q3zr+WP3/8AP8AiMfDn80v/Af+CfrMxIpqrjrX5NN/wWr+M4/5dvBf/gtl/wDjterfsZ/8Fa/GPxU+M9p4c8dWuhfY9WaK3s306zaJkmeeOP5i82MYkPQE8dK58XwBnGHoyrzgrR1ep1YHxX4fxeIhhqc5JzdldafmfoeRkU5BhKZBItxCjqfldQw9wakAwK+KSsfpSs1dC0UUUwCiiigAooooAKKKKACiiigAooooAKKKKAPPf2h/2mfB37L/AID1TxL4x1Gax03SLZbqfybWSeQoziNdqopyS5A/ngc18rn/AIOJP2a1dh/avi4hWIz/AGFJg/rXyx/wcTeILtv2h7fTfN/0NvDOnsY9i8kX07dcZ6gd6/NtfavrsryChXoqpVb1Pj80z+vQrOnSS0/rufuX/wAREv7NZ/5ini7/AMEUn+NJ/wAREn7Nf/QU8Xf+CKT/ABr8NqK9D/VnB9XL71/keY+KMZ2j93/BP3J/4iJP2a/+gp4u/wDBFJ/jR/xESfs1/wDQU8Xf+CKT/Gvw2oo/1awX978P8g/1nxn937v+CfuT/wAREn7Nf/QU8Xf+CKT/ABpR/wAHEv7NY/5ini7/AMEUn+NfhrRR/q1gv734f5B/rPjP7v3f8E/ck/8ABxL+zWR/yFfF/wD4In/xoH/BxJ+zX/0FPF//AIIn/wAa/Daiq/1ZwfRy+9f5D/1nxnXl+5/5n6F/tzftifsk/tifHHwb4zfVfG9vc6JqFkdTVbKWJbiziuJ5pQFKv87GbsV9iK+qfA3/AAXx/Zc+HPgvSdA0zUfGSadotnDY2yvosjsIoo1jTJJyTtUc1+JdFbTyHDTiqc3Ky8/+AY08+xNOTqRUbvy/4J+5Q/4OJv2ax/zFPF//AIIn/wAaT/iIk/Zr/wCgp4u/8EUn+NfhtmisHw1gns5fh/ka/wCs+Ntqo/d/wT9yf+IiT9mv/oKeLv8AwRSf40f8REn7Nf8A0FPF3/gik/xr8NqKX+rWC/vfh/kH+tGM/u/d/wAE/cn/AIiJP2a/+gp4u/8ABFJ/jR/xESfs1/8AQU8Xf+CKT/Gvw2oo/wBWsF/e/D/IP9Z8Z/d+7/gn7k/8REn7Nf8A0FPF3/gik/xo/wCIiT9mv/oKeLv/AARSf41+G1FH+rWC/vfh/kH+s+M/u/d/wT9yf+IiT9mv/oKeLv8AwRSf40f8REn7Nf8A0FPF3/gik/xr8NqKP9WsF/e/D/IP9Z8Z/d+7/gn7k/8AERJ+zX/0FPF3/gik/wAa6z4Mf8Fwf2ffjr44s/Duj67r8GpajMlvbrd6LOiSyPIkaruUNjLOOTgdcmvwKqbRZGtvFOjzKdskGoQSxsP4WDgg88VE+GMI1aDafmXDijFprmSt6H9VSgRLj1pV61heANSm1bRZJLhhI4mKggAYG1T2+tbsXNfCNcrsffRkmkx9FFFBQUUUUAFFFFABRRRQAUUUUAFFFFABRRRQAUUUUAFFFFABTX6U6kPSgBufSjPNIVyK4346/Fqz+B3wzv8AxFeZaGx8v5QFJbfKkfALKOrjvVQhKc1CGrZjicTToUpVqrtGKu2dpk0ZNflXdf8ABZz4tTXUj21r4Rjt3YtGr6dJuVSeAf3x5xTf+Hy/xh/59/B3/gtk/wDjtfRLhTHtXsvvPyp+NfDKdueX/gP/AAT9VsmjJr8qR/wWW+MJ/wCXfwd/4LpP/jtH/D5b4w/8+/g7/wAFsn/x2n/qnmHZfeL/AIjZwx/PL/wH/gn6rZNGTX5U/wDD5f4w5/1Hg7/wXSf/AB2g/wDBZb4wgf6jwb/4LpP/AI7R/qnmHZfeH/EbOGP55f8AgP8AwT9VsmjJr8qf+Hy3xh/54eDf/BdJ/wDHaP8Ah8t8Yf8Anh4N/wDBdJ/8do/1Tx/ZfeH/ABGzhj+eX/gP/BP1WyaMmvyp/wCHy3xh/wCeHg3/AMF0n/x2gf8ABZb4wk/6jwd/4LpP/jtH+qeP7L7w/wCI2cMfzy/8B/4J+q2TRk1+VP8Aw+W+MJP+o8Hf+C6T/wCO0v8Aw+U+MP8Azw8G/wDguk/+O0f6p4/svvD/AIjZwx/PL/wH/gn6q5NGTX5Vf8PlfjD/AM8PBv8A4LpP/jtJ/wAPlvjDn/UeDv8AwXSf/HaP9U8f2X3h/wARs4Y/nl/4D/wT9VsmjJr8qf8Ah8t8Yf8Anj4N/wDBdJ/8do/4fLfGH/nj4N/8F0n/AMdo/wBU8f2X3h/xG3hj+eX/AID/AME/VbJoya/Kn/h8t8Yf+ePg3/wXSf8Ax2g/8FlfjCP+WHg3/wAF0n/x2j/VPH9l94f8Rt4Y/nl/4D/wT9VsmjJr8qf+Hy/xh/54eDv/AAXSf/HaX/h8r8Yf+eHg3/wXSf8Ax2j/AFTx/ZfeH/EbOGP55f8AgP8AwT9VcmjJr8qT/wAFlfjCP+WHg3/wXSf/AB2j/h8v8YSP+Pfwd/4LpP8A47R/qnmHZfeH/EbOGP55f+A/8E/VbJpEHNflT/w+U+MI62/g4/TTpf8A47X6AfscftJx/tP/AAitvEHlCC6BWG6jCBAJfJhkfCh3IGZe5zXDjsjxWDh7SstD6LhvxEybPcQ8NgZvnSvZq36nrNFFFeQfdBRRRQAUUUUAFFFFABRRRQAUUUUAFFFFABRRRQAUUUUAFFFFABRRRQAUUUUAFFFFABRRRQAUUUUAFFFFAH4z/wDBUD/k77X/APdt/wD0jta+ex0r6E/4Kgf8ne6//u2//pHa189jpX9X8M/8ijD/AOFH8F8Y/wDI9xX+NhRRRXunzfUKKKKACiiigAooooAMc0UUUALmkoooAKKKKACiiigAooooAKKKKAFBxXo/7H4z+034J/7DNl/6Vw15vXpH7H//ACc34J/7DFl/6Vw152a/7nV9GevkP/Ixof4kfuRov/ICs/8Argn/AKCKtjpVTRf+QFZ/9cE/9BFWx0r+Rp/Ez+/aP8OPohaKKKk0CiiigAooooAKKKKACiiigAooooAKKKKAPxg/4OJzj9qW0/7FfT//AEtuK/Oo8mv0V/4OJ/8Ak6a0/wCxX0//ANLbivzqr9LyX/dI+h+Y51/vk/UKKKK9XoeU9wooooEFFFFABRRRQAUUUUAFFFFABRRRQAUUUUAFFFFABRRRQAVNpf8AyHtN/wCvyL/0IVDU2l/8h7Tf+vyL/wBCFRP4WXD4j+oj4V/8i9N/18N/6CtdNXM/Cv8A5F6b/r4b/wBBWumr8kqfEfr1P4UFFFFSWFFFFABRRRQAUUUUAFFFFABRRRQAUUUUAFFFFABRRRQAUUUUAIelfPf/AAUwGf2Vdb/7Yf8ApZbV9CHpXz5/wUv/AOTVdc/7Yf8ApZbV3ZZ/vdP1R8xxp/yIsV/gl+R+PluP3K/QVJ2pkH+pT/dFT2VlNqd9DbW0UtxdXDrFFFGhd5GY4AAHJJJAwK/bZXS5nsf56wg5yUYvV7EVBOa9/wDDX/BNr4g+KvDFlqMF74bgub+BLhNKnmuF1GMMAQGhEBIO07jz05rx7xx8LNf+H3jLU9Dv9LvjfaRM0NyY7aQquCBu5UHacjBIGdw9a5aePoVZctOSuvM9fG8PZng6ca+LoyhGWzf39L9DBoq3/wAI5qzpC40fV2Wc7YXFo5Fw2cbUOPmOcDA7nFWovh74lkmhjbwv4kiNxIsaeZpsq7mZgij7vdiAPc1u6sF8UtTzlhKzdoQevkzKoAxXc/FT9nDxd8G9J0i91rSrqOHWoYZoAltMDH5oZlR96KA4CNkAn8a5LUvC2s6BB5uo6FrelQt0e8spIUPTuwHqPzHrUQxFKceZS3Nq+V4uhLlq0ZR5d9O5TozWmngTxJJFuj8MeJGjP8S6bKw/PFQ3nhrV9KtBc3ei6xZWrDie4tHjibjPDEY6An6A1Sq03onqzGWGrJc0qbS6aMpGirsHhXW7ywN3BoOtzWQXcbqOykaELjOd4GMY5z6c0un+E9d1aAtY+H9dv4wcM9tYySqG4yCQOvI49xVe0XVr8BfVa6kk4vXyZRorTh8C+JL2PzIPDXiO4jH/AC0i06V1/MDFV9G0afW/EVhpcS+Xd6jdR2kayAjDyMFXIwTjkdAT7VKqwd1fbsDw2Ii0nTavt5lSjNfRkX/BMTx01jZS3PiLwLpr6jFHNbwXl/cRTShxlQFMHJPI4zyDXAeLf2S/FvgXx7J4e1IWkFwlqbtLjEwt54/MMYKM0YJyQSOMEDrXLDM8JPRTVz28RwjnOHgqlTDSUX6f5nmWOaK2br4deIl1G5gtPD+uakLWV4WuLOxlmhcqxUkMF6ZBH4Gum8E/s0+JviD8Ndf8VWMMSWPhyBZ7q3lWUXLBi6gKoQgkmM4BYZyK3niaUVeTSPNoZVjK1R0qNOTe+3bffexwFBqa50e/01Ee80+/sVkPyNc27RB+o4z16H8j6VLpnhzVPELsNM0nU9TKZ3fY7V59pGM52g+o/MVtdWv0OP6vVcnTUXzdktSpSg4rsPhN8BfFXxm1z+z9H0q8EvnQwSNNazbI/NYqrMVRiF+VsnHY9apfFP4Vah8IvER0rU5rSW5XkiBmIX5Ubncqno47etYQxNGc/Ywl73Y6qmWYqGG+tyhJU725mtGzmxwa/T//AII18fAK+/7CMn/pNaV+YFfp/wD8EbP+SBXv/YRk/wDSa0rwOLXfA83mfqngjf8A1jTf8rPsWiiivys/tEKKKKACiiigAooooAKKKKACiiigAooooAKKKKACiiigAooooAKKKKACiiigAooooAKKKKACiiigAooooA/Gb/gqH837XmvfS3/9I7WvD/CngrWfHl5JbaFpGqa1cwJ5ksNhavcvGuQNxVASBkgZ969v/wCCoA/4y413vxB/6R2td9/wRGsYtR/aB8ZLPDDOq6FkCVAwH+kxeor+msLmEsDw3DGQV3CC/RH8UY7K1mPF1TBTdlUqS1W60b/Q+YvE/wAGfGXgvSze6z4Q8UaTYqQrXN7pc9vECeACzKBz25rl/tkaTFTIgK9QWHFfbnxE/ap8NTaR4z8IX+qaz8RtS1DV5YrWx1DT7a2g07y50k2qyTzPhFhkUfIM+ZyF5r0b9m/9mXwN8QLvRdN8TfCTw/bx6vYi8F5G8kj/ALyP7Qm4mKMjKEA4bAJwMjmvNjxrVoYZVsfRad+mmlt7Ox6k/DqlisY8NlmITtHW/R3tZtadj87Lfw/qF1os2pRaffPpdtt828EDG3i3NtXc+Noy3AyeTxTLnSLywsY7q4s7u3t5k3xzSwsiSLuKbgSMEbgy59QR1Ffo1b3XhDwh+wpr2oWnwn03Wbe0+z+bpcKAy3e7UNozIImf5SS3IPAxwK2vEHgfwR8SvGngfwtc/CjTYNI1izV3ukjMcNiEvblvLOyNfvNHk/MP9b0PfN8eyjJynRfKpNXutkk9r7my8MVVilTxCcnFPZ2bba3ttdH5gx3UczYDo2PRun1pDdRBiPOiz/viv0i+PH7KfwZs9DuLCDRfDWiarZakwgkspATMiK6rFJ+8Q5LdQQ33R97txH7RGi/Cn9n/AF/4PeGY/hJoGr3PjmytfteotN5ZDyNDGX2lH3HLM3DL1/GuvCcd0MU4ww9GTk76aLRK9737HFi/DPE4TmeJrwjGNtdXrJ2Ssl+Z8KC7hY8SRg+hcc1a0/T7jV72O2s7ea6ups7IYULu+Bk4A5OACfwr9NI/gJ8FfEH7QfiD4dL8JtEtW077N5epLK2fntvtB+UYI6bfv85/Cvg/9nzRk0n9rPRLDAlhi8/AZeDmzkbkHPc16OXcVwx1GtOlTcZU482ttU1dbHkZnwVWwFahRqVYzjUlyXV9Hez3SMWT9nb4h2tq88vgLxokKKXZ20S5CoAMkk7PSuQvUfS7mSG6R7aaJzG8cy7GjYHBUg8ggg8V+qeiP/wkPx18b3Vl4/u9Zg8Ni/MvgltOgxcLBcAske2d2KsCIATEOvTPy15t+zj+zt4C+OviH4k+MfEXg3S7W4s9a1O3j0rUw0S2oVo5g5XhRtLsmTH2POOK+dwXH01CdTGUrxjb4fP1t/kfV4/wui6tOlgKy5pX+Lsuul18tz88fOQJ5m9dh754/OiK4SThHV/905r9K/DH7DfwW8b/ABruL/TLLSbrTbfb/wAU6kjESboCvyhZz0ZTIfl7fjXjeveAPBvxx0+Cwh+BOr/C2X5t2uyR3C2a8hhuO2Jf4PLGf4pfXr6tDjvDVZJRhK1ld6aX8r3fyPGxXhnjKEG6tWOraja7vZpbpNL5nxuLmIyYEsZb0DCle5jjOHdB7M2K/RlP2fPhn478a+K/A5+Cg8MQaPYagLfxQ4mWMtBIkCTZwmciQy8yHhDyfvBLn9l/4ZfAHwH4djHwxtvixPrutW2nzX1qJXNjHNH8zsQZeEMe48j/AFo5HfH/AF+w6jyypS5ui93b1vY3j4X46b5vbR5Vu7Pfta1/mfnQbmJYQTJHsz13cfnUmmwvrN/HbWgNzcTtsSGIb3dj0AAySa/QDwT+zd8Nb/8AbM1/Sb3wDpx8P2+jw3cekOGxbSPBasR1zkNI2fcmtv4bfBr4UfGzwL4J8aaJ8N9P8Izvq9ujxQTOWdTqKW5BdSn8Kt2/jP1p1OPKKXMqUrNLXSybTt18hU/DPEv4sRG6bVtbtRav089Ln563HgjWbPUfscmj6mLpUMrRm1kDqoUsWK4zgKCSfQE0258J6naaV9ul0+9jtA2wztA4jBxuxuIxnHPWv1S8a+E/BPgTxx4msbb4e6Zqd1aaXeXEcsh8+eXGnM/lKzq7jdgrwf4jx2rzXxJ8CfCnxQ+Bfhya40GPwh/bHi22tbiCWaUAxy25LJtLIP4scAH5O3bio8euXK6lKydvx8rno4nwuceb2dRSkr6apaW6n5xfa4TIAJYyT0wwNK11FG4DOin/AGmxX6Vyfs+/DDxF45u/C3/Chf7JgnsrYrrGydVtGuJJ4mfO1ceUIlcnePvfw9TxWm/C/wCFPwV+CM2tav8ADnRPGt3JqMsaStMY/KRVthszhx1lJ6d/eu6PH1FtJUZObasvd1v87I83/iGGKS51iIKHV+9pbycbnwVHKJVyGDe4PFelfsf/APJzfgn/ALDFl/6Vw16R/wAFMvgd4Y+CHxjtIfCulQaPYX6yE2sO7YmyG16ZY9TI54x96vN/2QP+TmPBnqdXswp9D9qh5r3ZY6GNymWLpppTi3rufNUMsnl2ewwVRpuE0rrZ9T9yNF/5AVn/ANcE/wDQRVsdK+dNc+FX7QOo6pJcaJ8U9A03R5WL2drLpEDvBESSiFjASSFKjOTnFVh8G/2liP8Akr/hz/wSW/8A8j1/Ks/iZ/ddH+HH0R9K0V81/wDCmv2lv+iv+HP/AASW/wD8j0f8Ka/aW/6K/wCHP/BJb/8AyPUmh9KUV81/8Ka/aW/6K/4c/wDBJb//ACPR/wAKa/aW/wCiv+HP/BJb/wDyPQB9KUV81/8ACmv2lv8Aor/hz/wSW/8A8j0f8Ka/aW/6K/4c/wDBJb//ACPQB9KUV81/8Ka/aW/6K/4c/wDBJb//ACPR/wAKa/aW/wCiv+HP/BJb/wDyPQB9KUV81/8ACmv2lv8Aor/hz/wSW/8A8j0f8Ka/aW/6K/4c/wDBJb//ACPQB9KUh6V82f8ACmv2lv8Aor/hz/wSW/8A8j0f8Ka/aW/6K/4c/wDBJb//ACPQB73438faJ8MvDM2s+JNa0rw/pFsVWa+1K7jtLaEswVd0khCjLEAZPJIFXNG16z8SafHeade2moWcudk1tKssbYJU4ZSQeQR+Br8/v+Cmnww+Nmh/sUeMbnxn40tvG2gRtY+do2k6HF9tu2N9bhPL2RI3ysQ5ww+VG6jIr4l/4Ig/smf8FGrfxz4Q1zxH8X/E/hT4aafqcU2r+HPG0WoXF7fWgmuBNCiXto2xnw3IkUgSxtkELgA9K/4OJRn9qW0/7FfT/wD0tuK/OiWQQq7HkICcfSv0N/4OCYbq2/aP02O9mW4u18L2IlkVdokP2+5IwMDopA6dq/O+9/49pv8Acb+VfpeS/wC5x9D8wzv/AHufqfV/7PP/AASH8Y/tFfC7UvF8Hj/wB4X0jS7yaznbWbmWDb5UMczybvLKhAsq5JPGDms/4+/8EqvGfwI+FE/jSx8Z+BviPoNnJ5N5L4VuZr4WjmSFFR2WLYrEzqQCwOAa+4f2NfEvhnwr/wAE5fH914t0PVNe0mK+1uW4trG5kgkkgTTLMyoGR0IZl4ByCD0Ir5yt/wDgpx4B8Q+BV+FXwo+GfiDwroHia7lvdXOvaqdRE00awyRlVnM7YH2fGA6AEg4NefSxmNlVcoK8Yvytb8zvq4LBxoqM2lKS87nwt/ZWoKgJ0nVQD3Ns1NFheCHzfsN8YQNxl8hvLUddxbpjHOa/Wb/gpTqfg/4SeOfDPhzR/BHw88L2dw2qPNdDw/pw+0NayWsca5eDPSeQ4DduQcAj2r4u/CD4QfCzVtP0D/hSz67oV7YXtq1to/gOzuN8URt41kN3uEy4SRgrg5beWJBUZ0ee8sYydPSXn2I/sO8pRjU1Vunc/CpvNmTNtbXN84G4pbRmVseuB9a+o9G/4JM+OdU/ZY8PfF248VeEtI8PeIwhjtb5p4rm03M6gS5j2A5Qj7x6ivp62+EvgT4Rfsn/ABj8f/DP4Z6f4g8Yad4tlsLDSL7Q4dRvdJtXurIND9nmFyo8pXKHMeV3NyO/0p9ru/iR/wAEtfh1P4l8LQaJd38sUl3oz6dHaxwMHuCB9nWKNE6BsCNQM5x3rHE53UuvZKyvbzN8NklOzVXV2v5fefjn+09+zNd/su+P4fD0/ijwz41uLgkJceHbg3MLERxSYBwD/wAtQOnVG9K4TTPDmparrNnp6aZqCXeoXEdtAklu43NI4RR0zyxxwDX7A/Hn9nPwH/w3d4vuk8HeHL688L6TcX+h6J/ZsRiurhdDaYKsGCsh8xEbDRuM9uefGh8SPFd493Je/ss6XaLpuuWIg8V/8I3FZR6OqtayhtqaYI22uzHLyDO/B4ArWhnU3TTcb6K+y1ZjXyeEZtKVtdNG9F5nyt8Q/wDgm544+FU/gVde1XRNOi8ffYGtpZRPHFpq3m7Y1wzxrtEe1i+M4A71xH7Tn7MOp/sv+MLHSJNe0Lxwt7Zi9a+8NyNd2tqC7p5cj7RtcbNxHowNfrF+2D4n1vxB4r/Z30+XwrZa1oeuHw3/AGjO2g29xDD5ryrKu8wHy1CHOFZQoOQBnNaXxP0v4R+GP2hrn4Y694D8FifxzomnWmkTzaZZq9tLd3N9bM6FlEmQREcoc8DGDycKWdVouMqivvojarktKScaTttufiMtjdGAyizu3gXrOIj5Y7fe6dePrTTZ3JthP9kvDbdftHknyuOvzdOMH8jX6h/tgfB34cfsp+Afhx8EJ9I8J/21r39p/wBr6+LG3SZfJkivYN0r/v1+SXyxh1yOOV4r6L+M/wAEvgz8JPEd74P/AOFKS634cfSbvy4dH8E2tzHakrAWnN9vE/y+dJ34LNyPLWumefKKjLkfvbenc56eROTlHnXu777n4aadanVdVsLNGAk1C5jtY3I+VWc4BPtzX078fv8Agkr8QP2dP2S7P4x6p4i8Mal4dvbewuRY2Xnm7jS82eXu3RBODIoPzfTNeOfFzStH0T9ra4s/D1nNp2iweLWW0s5lKyWSC9cJCQWbBVAoxu4x+Nft7J4U0f8AaC/Zv+Gnwg11IZbLxV4K0e823Ch490MKzD5QQxP+jnof608yzGpRlTlHZ7+hGV5bTrxqQktVt6n5l/Dz/gh38UfiT8Dbbx/F4o8Iadp1zu22d19qW5XbcNAcjycfeXPXoRXx4lhc3F1LDa2d1fNHjcbaIybcjIzj8fyNf0L2/jfTx8PPG/gnQURLfwV9g3pCVZR9ql84YUZI53devavjb4q/CvQv2T/+Ce2i+KfhR8JtC8e+JdW8/wC26rHosWtTL5epLFH8s0F0v+rllT+HhO+0beXB55Vlf2iu27Lod2MyOiknRdkld7v7j8rCH80xFJfN3bRFt/eBum3b1znivZv2Uf2GfF/7Xr6wNGurLw//AGJbtcynV4poxMqywR/JtRupuFI9lb8f1G/4Ye+CN3+1F4U1e88HeFNP17UPCNnrFx4Xa3VY5L57vezmDcqgl8xbRBjAxj+Gsz9mrxfr9/8AGD4z6BdfDC08CaBol3qFppl/a+HoNNjmgi1O0SFFkjtYTIGTJBLtu2AndgEaVM9cl+5jb1/rUwp5Fyv99K/p/Wh+QPjv4fap4D+IeveG2t5tTvPDmoT6bczWULSRySRSNGzLwDglTjIH0rqP2Y/2a9Z/au8e3nhzRb/T9IvrC2lupG1DeFKx209yRhVY5KQMBx1Ze3Nfrj49+Evw2+DHwPs/FVr4Jt9Y1nxFqOp3OqX+n+C7LxHd3U39osDvFy/yFTK6/KeQGyBsArz7TfCPgDQ/26vtPgr4c6r8Obi80fVvt9leaZ/Z/m7dCmEe2IOVGAXJwq/6wHnOaFn0pRlGCto9dC/7BgnFzlfVaan5Y/GD4XXvwV+JWqeFtRuba8vtJMSyzW+fKfzIUmGMgHhZAOnUGsDS/wDkPab/ANfkX/oQr1r9vpcftgeNBjH7yy/9ILavJtJ/5GDTM/8AP5Fn/voV71OTnRjN9UvyPn6iUK7gtk/1P6hvhaf+Kfl/6+G/9BWumyRXxp+0r8F/2jviVrmk3PwZ+JmmeBtGtonj1G2u4PNN1PuBDj/R5cfJgdR9K87/AOGUP26z/wA3B+G//AL/AO4q/NVhIz1dSK+//I/TPrk46KlJ/d/mfodu9qN3tX54/wDDJ/7dn/Rwfhv/AMAf/uKj/hk/9uz/AKOD8N/+AP8A9xU/qMP+f0fx/wAg+vT/AOfMvw/zP0O3e1G72r88f+GT/wBuz/o4Pw3/AOAP/wBxUf8ADJ/7dn/Rwfhv/wAAf/uKj6jD/n9H8f8AIPr0/wDnzL8P8z9Dt3tRu9q/PH/hk/8Abs/6OD8N/wDgD/8AcVH/AAyf+3Z/0cH4b/8AAH/7io+ow/5/R/H/ACD6/P8A58y/D/M/Q7d7Ubvavzx/4ZP/AG7P+jg/Df8A4A//AHFR/wAMn/t2f9HB+G//AAB/+4qPqMP+f0fx/wAg+vz/AOfMvw/zP0O3e1G72r88f+GT/wBuz/o4Pw3/AOAP/wBxUf8ADJ/7dn/Rwfhv/wAAf/uKj6jD/n9H8f8AIPr8/wDnzL8P8z9Dt3tRu9q/PH/hk/8Abs/6OD8N/wDgD/8AcVH/AAyf+3Z/0cH4b/8AAH/7io+ow/5/R/H/ACD69P8A58y/D/M/Q7d7Ubvavzx/4ZP/AG7P+jg/Df8A4A//AHFR/wAMn/t2f9HB+G//AAB/+4qPqMP+f0fx/wAg+vz/AOfMvw/zP0O3e1G72r88f+GT/wBuz/o4Pw3/AOAP/wBxUf8ADJ/7dn/Rwfhv/wAAf/uKj6jD/n9H8f8AIPr8/wDnzL8P8z9Dt3tSnpX54f8ADJ/7dn/Rwfhv/wAAf/uKk/4ZR/bsJ/5OC8Of+AP/ANxUfUYf8/o/j/kL6/P/AJ8y/D/M/QbWGuBplybQD7UIX8ndwu/B254PfHY/Q18ZX3/BaPwt8J/j7f8Aw4+JPhfXfCmpWl1JbwarLPAtheRrc/Z1mDTGAhWZZH4DAKvBPOOI/wCGTv27Mf8AJwfhr/wC/wDuKvzm/wCCn3hDxz4O+OVnpvxK8YaB488Xi1QmbTIIlljX7RcrsYLHG24SiQnK9XHOeB6GXZXSrT5JTUvS/wDkcGY5tVowU1Bx9bf5n9BPgr4meHPiZZTXPhzxBomvwW7+VLLp19FdJG+M7WMbEA4IODXjP/BTLj9ljW8/9MP/AErtq/JT9hj4Fftc+KpJ/wDhXniLx14D09dTt0uzqq6hHbyynGJCphkRlVcbs9iMgiv05/a+8O+MvDP7CupWfjrX7PxP4hXyvOvra2WCN86hEV+VUQcIUXp1U+uadHALD46lFTT95ep4/EeYPE8P4qTi17kj8sIf9Sv0Feg/sreM9P8Ah/8AtC+FtU1QH7DDqNp5j7wiwgXMTF2JIAACnOTXn0H+pT/dFOr9VrUlVjKnPqj+EcBi5YbFQxEFdwdz7c8bfsheLviv+11qHxF8NeMPDmi6HrrC8sdYcfaRBG9qFAIKGFj/AMs87zyc9eKs/BDwVd/8LJ8f+EZPFeieJPEP9nSxvfxskUV266hayNhI92MKCMAdVOcc18gWPxs8a6Xo0WnWvjHxVbafAgjjtYtWuEhjUdAqB9oA9AKoaP8AEDxB4d1yXVNP17WrDU7jd5t3b3ssU8u45bdIrBjk8nJ5NfP/ANi13Gzmna1tO3c/SqfHWVwrfWKWGneTk53n/Nvyq9l5M/Rq9S++Avw5+Fdkr6drWs6Xe3Z+ywXJTzS94jAA7GbO18gbOSMdDmtL4u3vijxf4OvvGdx4mh8GGynt3Ok3llE+5YpouksgQ4fkA7OCcDOM1+cF58ZfGOoXNvNceLfE889o/mW8kmqzs8DZByhL5U5A5HoKdrfxs8a+JrB7XUvGPirUbWQAPDc6tcSxsAdwyrOQcEA/WuVcNTunKavfV2Pbl4s4flqQjRmoSVormstEldtav02P0l8e+J9Q1vxH8M9T1HWNNk8Jmx0t5iZEQfbdzMzlwoAHlk8b8d9veqd5r3iTTvhz4tPxl1/Q7vRJY7EWUSTJauWE7eZg+XBu5Nv/ABHGO2efzfuPi14tu9LgsJvFPiOWwtdpgtn1KYxQlRtXau7AwOBgcCl8T/FrxZ40sRa614p8R6xaj/lje6pPPH1B+67EdVU/gPSl/q1NWXOtPL8hy8XcNJSmqM3J9Ob3Xpb3u6W6P1B1n48ah4R+Ifwx0DTdUtItK1j+1ftgLRHPlRCSPcSpK/MTjDDP6V53pfx6l+LEnxX0vxhqFvcaB4X1NhZxl4ovLiH21ThlCEjYg5Zj9e9fDXgi6+I/xb8SW1voV74y1vUbDf5EltNdXDWu9WLbSm5k3KjZx12n0rR8W/Cr4rfD+5W31Ww8ZWDeK7j7KyyxXkQ1KZiRsfco8wnzG4wxO5uOaiWQ0YPkc1zfjve/3HQ/EnMMRD20MLN0u28bcqjb0vqfpInxAstE8CeH73RFuNY8NJ4dto5bexVZlVRHuIaUFip8sKCM8ZBzXkfxh+Otz4F/Yr8b6z4Kvo9Av7nxWNqSeVcSQh2gLArIGB4AHTtXxV4k8VfEv4Mwx6DqGu+M/D8M1uGSwN9d20bRHMYxGxUbcIV6YwuO1ctd+Ptb1LSZdNudb1a4064l+0S2st5I8MsnHzshbaW4HJGeBV4fhuCam5qSun8jLM/Flyp+whQlTnyuPROLatp1sfph8J/iV4t+N/w60jTZIz4WEfnf8TSJBf28uZXbnfFEq42bRgnJbtjn4P8AGfh0+D/2xNFsZPEFj4lMGu6YW1O1VEhlz5DZwpKgLnaef4TXKaX8dvG+gaYlrY+NPFtnaR5xDBrFxHGMknhQ+OpJ+prnP7VnOorefaJzdI6yLOZD5isuNrBs5BGBg54xXpYDKJYepUkpLllfRI+Vz/julmeHwtKVObqUWryb0suyWnztc/S/4tfED4TS/Fn4c6L408ODUtTm0zTGsNaTWXhhtJzM6RqyLIina29znPBxgiqFpNr9l+1nrI1HUNPfw6vhd49GniYGJLcainkRl9igv5YJ+8xI5yetfnXqfjfWPEd7b3F/rOqX1xY7fs0txeSSyW+wkp5bMSV2kkjGMZOK0n+MvjCZkLeLPErmOMQqW1SclUHIT733Qe3SuFcOOKtGpuvP8Ox7r8V6dR3rULWaatypuy2lbf8AE/SPwJ8RfE3jTRp/DlvbvpNhaajfJFrNsn26Kdftcz7mVo0VPu7QA7ZLHnjmL9lqHTfgtc+OTr/i/SPFCWz6a0t7bPFApJMhVsB9oCl1zz/Aa/OjTPjt450W2aGz8aeLbSFmLmOHWLhFJLFicB8ZLEn6kms2L4ieIre2uok1/W0ivgouUW+lC3AX7u8bvmx2z0rJ8L1HzLmSTa/q+51U/FvDRlRqujKc6aa1lok+iS0+b1PeP+Cp17P4r+OkfiG01G31Pw5qem266cYAriAqZUZS65DHzI5W+8eHHpge5/sr+INVf9jKytPhZq+l6b4tW8Q363EqTOw+wxCQ+WUmIHm+V/AOhHHQ/BOpeJtS1qxhtr3Ub+8t7b/UxT3DyJFyx+UEkDlmPHdj6mrfhX4jeIvAZf8AsLxBreieZncLC/ltt2cZzsYf3V/75HpXp18nlPCww91ePl+Z8rgeOadDO62b+yklVvdX95X/AJX0P1S8V/Fyz0j48aFY6VrenN9p+xfbfs88U6GNriRVBY8r0k6AfU9vzI+P/wASNa+JnxX1O81q+F/MvlbJBDHH1hjB4RQP4V/KsWL4j+I4dRF2niHXFuwFAnF/L5gCklfm3Z4LMR6En1rJnne5maSR2kkfG52OWbHAyaeW5KsK3O93bcy4w4+lnOHjQhGUYqV7X0elrfqMJxX6f/8ABGz/AJIFff8AYRk/9JrSvzAr9P8A/gjX/wAkBvf+wjJ/6TWlc/F/+5truj3vBBW4iVtuVn2LRRRX5Sf2kFFFFABRRRQAUUUUAFFFFABRRRQAUUUUAFFFFABRRRQAUUUUAFFFFABRRRQAUUUUAFFFFABRRRQAUUUUAfjP/wAFQR/xl5rw6fLb/wDpHa15L8Gvjl4s/Z91y71PwdrEuiX1/B9nuJY4o5DJHuDbcOrDqAePSvWv+CoH/J3uv/7tv/6R2tfPY6V/VOQUKdfJKNKtG8XBXTP4S4oxNXD8Q4itQk4yjN2a3RabWrpvEU+riYpqdzPJcyXCgK7SSZ3tx67j+deo6F+3j8XPDGnWNtY+MJoE02FLe2f7BaNLHGibFXzDEXICYHJPAFeSUV6uJyzCYmKjiKakltdHjYTN8bhJSlhqsot72drnpWiftifEjw5od1pdr4jddMvNnnWkljbSwvtYsvyvGR94k/WrNr+298VrOyt4I/F9wBaEeRIbK2MsXzl8CQx7wNxPGcckdCa8sorCWSZfJ3dGP3I6FxFmcVaNeS+Z6J4q/a1+IPjeFV1PW7edklE/mrpVnFM7jPzNIkQdidxJyTk8nmsfxv8AHfxd8StX8OahrutTaheeEUjj0eV4o1NksbKyAbVAOCqn5s9K5OirpZRgqTTp0oq3ZLruZVs8zCtf2taTva+vbY9Jt/2wfiVaePbrxRH4pul1+92efefZ4N0myPylyuzbwnHSuK0nxpqmg+Lotes7todXhzsuAi5GUMZ4Ix90kdKy6K1pZdhaV/Z00rqzsunb0Mq2aYutyurUb5XzLXZ9/U7XQ/2kPHXhj4jXvi7TvEl9Z+IdS3/a7qJUH2jfKJX3Jt2Hc4BI29sdOK1NH/bC+JXh/WtQv7LxPLbzas0j3qCztzBdtIwaRniMfllmIGTtyRx04rzaisp5PgZ/FSjtbbobU89zGHwVpLW+73O90/8Aal+IejeMx4gsPE91puqj/lpZwRW8Z+Ty+Y0URn5Seq9yepzVvxz+2B8TfiPpC6fqni6/Fiuf3NnFFYq3Ktz5CpnlQeff1OfN6KX9jYDmU/YxuttEH9u5ioSpqvK0t1zM9U1r9uX4t69ok1hP4zvfJuYWt53itreGeaNlKsrSogkO4Hk7skgHqAa+pP2W/wBvH4deH/ghpmieJ9cutG1ewuIriaa4jvdSe6ZLeJGYERsE3MGPDcYOOua+B6B1/SvNx/CWXYul7Dl5Fe942T/JntZTxxm2BxHt1P2jta1S7VvvPfv2g/209Xv/ANozxF4k8A6pNp9td+VbQXyxhmuoI4YozlZYwy7mjDcjIxjnrXB+Ev2sPiJ4D8OWmkaR4lubLTdPlWe3gSCEiJ1l84HJQk/vPm5P6V57RXZh8hwFKiqSpppWWqTbts2edi+J8yxFeWIlVabbemiV3qkux6bdfto/FK+8XnXZfF98+pshjaRoISjqYzGQ0ezYcoSOVqLxR+2B8S/GejQafqHiq5a0tbtb6FIbaC38qdVKq6mNFIIBOP8A6wrzeitf7FwCakqMbrbRGL4gzNpp15a76s9e1D9vz4x6pazxS+N7z/SYjDJJHaW0cpQgjAkWMOMbjjB4JJGCa5G6/aC8Z3/hY6LPrtzLpZmafyHSMje3l5Oduf8AllH3x8vua4+iiGS4CHwUYr5IKnEGZ1PjryfTdnU/FX42+Kvjhq0V/wCK9Xl1i7gDCOSSKOMpuCA/cUDkRp/3zW/+x/8A8nN+Cf8AsMWX/pXDXm9ekfsf/wDJzfgn/sMWX/pXDU46jTo4CpSpK0VF2S2NMoxFSvmtKrWk5Sclds/cbRkzoll/1wT/ANBFXVGFqpov/ICs/wDrgn/oIq2OlfyXP4mf3vR/hx9ELRRRUmgUUUUAFFFFABRRRQAUUUUAFFFFAGf4i8Lab4v0uSx1ewstVsZSC9teW6zwuQQQSrAg4IBHFXILZLWMJGixoOiqMAfhUlFAH4wf8HExx+1Naf8AYr6f/wCllxX50uokUg8hhg+4r9Fv+Dif/k6a0/7FfT//AEtuK/Oqv0vJf90j6H5jnX++T9T0zR/2yPib4e+HGoeELLxXdQeGtWNwbyxFtAVn8+JIZssU3DdHGi8HjHGDXnehatceGNVhvrCQ293b7vLkUAldylT146E1Xor0Y0oRWi3POlVm2m3sd98b/wBqX4g/tJX1pc+NvE15rdxYPNJbyGOK3MbTFDL/AKpVzuKJwf7orvn/AOCpf7QU2grpz/EnUXhjtDYpK1hZtcpEVCsBOYvNBIVSWDbiVUk5ANeB0Vk8JQaScVpsWsVWTbUnruen/DP9tX4r/B/UtWutC8a6lG2vTS3OoxXccV/BezSsjvK8Vwrxly0aHO3I2jFdV4k/4KgfHrxf4ei0jUPiBcyaXBIJYrWPTbKGOJhnG0JCMAbjwOOeleDUUPB0G+ZwV/QaxldLlU3b1PXNY/b1+MOvfFq18d3PjrU38V2hJW9WGCMSZiEJDxKgidTENmHUjBPHJrU8c/8ABSv47fEbwxeaLqfxD1JdJ1DYbm2srS1sVmKsrAnyI0OcovPUhQDxxXh9FL6lh7p8i08g+uV7Nc718z3JP+ClvxzXw7o+lP48uLi08PiEad9o0yynltPJXbFtkeEvlR0Jbrk9ea5fx9+2L8Tvij8TNE8Za94uvr7xR4cEC6bf+VFE9sIJWmiwERVO2RmYbgevpXmtFOOEoRfNGC+4JYuvJWcmdv8AGz9pLx1+0f4zTxF428S6hrmtRZ8q5bbAYcokZ2iIKq5SNAcAZ2+5rv5/+Cnnx+u/DMmkzfErVprea3ltZJ3tbY3bxS53r9oMfnYPH8fG1cY2rjwmim8JRaScVptoJYqsm2pPXctXOuXt74hOr3F1Nc6o139ue6lbfJJPu3mQk5yS3Jz3Nex6X/wUh+OGi6v4fv7Xx7fQXfhWyTTtKkFlan7JbpG8Sx48rDAJI4ywJ5znIBrxKiqqYelNWnFMmniKtN3hJo9m0D/god8aPC95r1zY+Or+G48T/Z/7Vc2ls5vPs4IhzujONoJ+7j3zUHwz/b/+M3we8JtoGhePNRGhHG3T7+3t9Sto/naT5UuUkVcu7McAZOCegx5BRUPB0GuVwX3FrGV07qb+89N1H9tL4t6t8VIPG9z8QPEUvim1CrDe+fjyo1m89YljH7sRiQ7gm3b2xjiuwvv+Cpnx+1OC4jm8fy7LwYuNmkafG1x8wfc7LACzFlBJJySOSa8Coolg6Et4L7gjjK8dpv7z23wx/wAFI/jj4O0uews/Ht1NYTzyXH2a+06zvoonkleaQos8ThA0jsxCgDpxhRjHvP25fi7qXxIn8X3XjnVrnxHPE8DXcyxSbUe3Ns4VCpRd0JKnCj16815VRSWCw6d1Ba+Q3ja7VnN/eavjfxxq3xJ8VXmua7ePqGq35Q3FwyqpkKIsa8KAOFRRwO1UNLP/ABP9N/6/Iv8A0IVDU2l/8h7Tf+vyL/0IVvJWhZGMdZ3Z/UR8LRu8PTc/8vDf+grXSqu2ua+Ff/IvTf8AXw3/AKCtdNX5JU+I/XafwoKKKKksKKKKACiiigAooooAKKKKACiiigAooooAKKKKACjFFFAFPX7aa+0S8gtbg2t1NA6QzAZMLlSFfHGcHn8K+c/C/wDwSz+Fd18RL/xh440Ox+IHivULuS6F9rCzTi3DyibylikmeIKsm9gFUD94wAA4P0uy5P8A9akEQDZq4VZw+B2M6lGFT41co6B4V0zwnaPDpen2Omwu3mNHaW6wqzYAyQoAJwBz7V4V/wAFL+P2Vtb/AO2H/pZbV9CHpXz5/wAFL/8Ak1XXP+2H/pZbV15Y39bpvzR85xmksixSX8kvyPx9g/1Cf7op1Ng/1Cf7op1ft3kf55vcKKKKBBRRRQMKRzhemfalpQcGi/cEfbP7JOmtZfsS6vf/AA6iil+In7nfLYxK+pL/AKfKoxkFv9R5g4/hznisjR7/AOOniK7+Gw+Imm6t/ZMWv6U0N1q6263G/PJAYCbcVyW75A3fNivl/wCH3xk8X/CKdpfCviTVdBd8bhbTEI+NwGUPynG9uo/iJrY8T/tT/E3xtJp76x441q/bSbhbuyBcItvMv3XCrgEjAxkevqa+bnk9V1ZSXK1LW7vzI/VMJxxgFg6NOftYSpq3LBxVOWt7y1vf5H6E/ECLwl8RP2govB2u+AdG1mQ+EhdrqN1Ckk8Z+0tCNuY94xuZgQ4wSe/NeX+MP2V9A1X9nfxYnhfwTZaj4gsfGMtrCbSy827htkVMpnBYIM/ma+QH/aW+Ir+KRrv/AAmOq/20tr9hF5lfMEG/f5fT7u/n61Y8P/tW/FDwjJdtpXjrXLFtQme5utkgInmcgu5B4BO0dPSub+wcXTjanNdOrPXq+I+TYiTeLwzkndXUYXSa067n3ta/s0+Abf8Aa4TSJfA3h3+zFzutGsY/K/48t4+XGPvc/WvN/gh4h8D/ABI0r4ratdfCbwjHH4O0qK7srf7DbFd7W80h5EA7wj7wb735/KL/ALVnxPk8SnWj451n+1/+fslTJ93Z6f3eKw9C+L3izwtZ6rb6b4gvrK316IQanHGRi9jCsoV/ba7j/gRqlkeKaanPW0Vu+m5lV8R8qjKH1bDNRTm3eENeZe7/AOA/d2Ppz9t/4f8AhG7/AGXPCPjPQ/B+k+F9T1GazjmaxiWJWD2k0zAhFRD823nb/CO3FfIMZ3IP19/euk8Q/GPxb4u8J2ugap4gvr/Q7Fka2sZceVCUQxoR9EJX6GucAxXu5dhauHpezm7n57xRnGGzLGfWMPT5FZaWS176aBRRRXdufNhRRRRsLzCiiihabDV0Ffp//wAEa/8AkgV7/wBhGT/0mtK/MCv0/wD+CNf/ACQK9/7CMn/pNaV8vxZ/uL9T9g8ENOIl/hZ9i0UUV+Vn9phRRRQAUUUUAFFFFABRRRQAUUUUAFFFFABRRRQAUUUUAFFFFABRRRQAUUUUAFFFFABRRRQAUUUUAFFFFAH4z/8ABUPKftd69xg4t+D/ANedrXz30HrX62ftj/8ABLbRv2r/ABpD4jg8RXnhrU2J+0+VZRzxzr5cUa8bkbIEQ5LH7x4FePL/AMEGYCP+SlX/AP4Jk/8Aj9fvvD/HmTUcto0a9RxlGKTVn/kfyfxR4X5/iM4rV6FLmhKTad1s/mfnpRX6Fj/gg1Cf+alX/wD4Jk/+P0v/AA4Zh/6KVf8A/gmT/wCP17H/ABEPIv8An6//AAGX+R88vCjifrh//Jo/5n550V+hn/DhmH/opV//AOCZP/j9H/DhmH/opV//AOCZP/j9H/EQ8i/5/P8A8Bl/kP8A4hPxN/0D/wDk0f8AM/POiv0M/wCHDMP/AEUq/wD/AATJ/wDH6P8AhwzD/wBFKv8A/wAEyf8Ax+j/AIiHkX/P5/8AgMv8g/4hPxN/0D/+TR/zPzzor9DP+HDMP/RSr/8A8Eyf/H6P+HDMP/RSr/8A8Eyf/H6P+Ih5F/z+f/gMv8g/4hPxN/0D/wDk0f8AM/POiv0M/wCHDMP/AEUq/wD/AATJ/wDH6P8AhwzD/wBFKv8A/wAEyf8Ax+j/AIiFkX/P5/8AgMv8g/4hPxN/0D/+TR/zPzzor9DP+HDMP/RSr/8A8Eyf/H6P+HDMP/RSr/8A8Eyf/H6P+Ih5F/z+f/gMv8g/4hPxN/0D/wDk0f8AM/POiv0M/wCHDMP/AEUq/wD/AATJ/wDH6P8AhwzD/wBFKv8A/wAEyf8Ax+n/AMRDyL/n8/8AwGX+Qf8AEJ+Jnvh//Jl/mfnnRX6Gf8OGYf8AopV//wCCZP8A4/R/w4Zh/wCilX//AIJk/wDj9H/EQ8i/5/P/AMBl/kH/ABCfib/oH/8AJo/5n550V+hn/DhmH/opV/8A+CZP/j9H/DhmH/opV/8A+CZP/j9L/iIWRf8AP5/+Ay/yD/iE/E3/AED/APk0f8z886K/Qz/hwzD/ANFKv/8AwTJ/8fo/4cMw/wDRSr//AMEyf/H6P+IhZF/z+f8A4DL/ACD/AIhPxN/0D/8Ak0f8z88ycf8A169J/Y+Gf2nPBP8A2GLLt/09wV9hH/ggvA3X4lX/AP4Jk/8Aj9ehfsyf8Ee9F+AnxQtvE2peLr7xDJYGOS0t20+OBElSWOUMxLyZ/wBWBxtPJ5rgzTj/ACWWEqRpVHKTTSXK1+h6uSeFfEUMfSqVqKjFSTbuv8z7D0bjRLMf9ME/9BFW1+7UaxiKNVHRQAB6CpF+7X89N3dz+uILlio9haKKKRYUUUUAFFFFABRRRQAUUUUAFFFFABRRRQB+MP8AwcTLn9qW1/7FfT//AEtuK/Omv0t/4OJfBGpN8codfEGdLg8Nackk29flJv516Z3dWHbvX5o7wRnPB6V+lZI4ywsUn0PzLPU44uTa6i0Um8UbhXrdNjyHpqLRSbhRuFAXQtFJuFG4UBdC0Um4UbhQF0LRSbhRvFMN9haKTdzRuFIPMWik3CjcKBXQtFJuFG4UDuhaKTcKNwphdC0Um4UbhSC6FqbSv+Q/pv8A1+Rf+hCoNwq14dt31PxjodlAN91ealbwQpnG5mcKvJ4HJ71M9ItsunrJJH9QvwqOfD03/Xw3/oK101YngbRJtC0l4phhmmL9umFHYn0raAxX5HPWTZ+vU7qKuLRRRUlhRRRQAUUUUAFFFFABRRRQAUUUUAFFFFABRRRQAUUUUAFBOKKRulADWl9q+fv+CmAz+yrrmP8Aph/6WW1fQIPNcx8Xfhdpnxi8CXfh/V932K82b2RVLLtkSQY3Ajqg7V04OqqWIhUlsmePxBgKmOy2vhKXxTi0vVn4RW/+pX/dGKkxg19/z/8ABC+2WZvJ+ImoiHJ2B9KRmC9snzhk49h9Kb/w4xj/AOii3/8A4KE/+P1+pLinL3rz/gz+Mn4P8VX/AN3/APJl/mfAWOaMc19+/wDDjGP/AKKLf/8AgoT/AOP0f8OMY/8Aoot//wCChP8A4/R/rRl/8/4MX/EH+Kv+gb/yaP8AmfAWOaMc19+/8OMY/wDoot//AOChP/j9H/DjGP8A6KLf/wDgoT/4/R/rRl/8/wCDD/iD/FX/AEDf+TR/zPgLGTQBmvv3/hxjH/0UW/8A/BQn/wAfo/4cYxj/AJqLf/8AgoT/AOP0/wDWjL/5/wAGH/EH+Kv+gf8A8mX+Z8BBc0AZr79/4cYxj/mot/8A+ChP/j9H/DjGMf8ANRb/AP8ABQn/AMfofFOAe8/wYf8AEHuKnp9W/wDJo/5nwD3qCTVLeHUEtXmjW5kXckZb5mHPOPwP5V96eLv+CK9j4K8J6prV78R75LTR7OW+mP8AY4PyRIXbpMT0U9AT7V+VHxc8fx+GPj7qxsb1r7TdAvrrTorhleP7QiSyorlDyCQQcds104fOsLiL+xldr1NKfhNncJP67T9mrO2qd306s9rCn0oIxX238Jf+CQekfGr4f2PiTSfiTftYaj5nlH+x8fckeM/elU/eQ9QK6L/hxjGf+ai3/wD4KE/+P1zvibARfK57eTMo+EXFUkpRw+j/AL0f8z4BxSkYr79/4cYx/wDRRb//AMFCf/H6P+HGMf8A0UW//wDBQn/x+p/1ny7+f8GP/iD/ABV1w/8A5NH/ADPgIjFBXFffn/DjGP8A6KLff+ChP/j9L/w4xj/6KLf/APgoT/4/R/rRl/8AP+DD/iD/ABV/0Df+TR/zPgLGDRjBr79/4cYx/wDRRb//AMFCf/H6P+HGMf8A0UW//wDBQn/x+n/rRl/8/wCDD/iD/FX/AEDf+TR/zPgLGDRtr79/4cYx/wDRRb//AMFCf/H6Q/8ABDCM/wDNRb//AMFCf/H6P9aMv/n/AAYf8Qf4q/6Bv/Jl/mfAeM1+n/8AwRrX/jH69PP/ACEZP/Sa0rz1f+CGER6/EbUAP9nSUH/tevsH9mf9nTSP2Y/hzB4c0mae7SPbJLcTIiySyCKOMk7QOvlg9+vWvn+Is8wuJw3sqLu7+Z+n+FHhzneU5u8bmFPkio90739Gei0UUV8Gf0uFFFFABRRRQAUUUUAFFFFABRRRQAUUUUAFFFFABRRRQAUUUUAFFFFABRRRQAUUUUAFFFFABRRRQAUUUUARhNw9KUqTT6KAGovFLilooATFGKWigBMUYpaKAExRilooATFGKWigBMUYpaKAExRilooATFGKWigBMUYpaKAExRilooAay5ppVl96kopWAYF3CnAYFLRT8wCiiigAooooAKKKKACiiigAooooAKKKKACiiigDF8c/D/RviV4cvdI17StO1fTNQhMFxb3lrHPHKvXBVwVODyMg8ivG2/4Jg/Ax5Wc/DbwZlyWP/FP6f3/7YV79RWkK1SGkW0ZToU5u8opngH/Dr74F/wDRNvBn/hPaf/8AGKP+HX3wL/6Jt4M/8J7T/wD4xXv9FX9arfzP7zP6nQ/kX3HgH/Dr74F/9E28Gf8AhPaf/wDGKP8Ah198C/8Aom3gz/wntP8A/jFe/wBFH1qt/M/vH9TofyL7jwD/AIdffAv/AKJt4M/8J7T/AP4xR/w6++Bf/RNvBn/hPaf/APGK9/oo+tVv5n94fU6H8i+48A/4dffAv/om3gz/AMJ7T/8A4xR/w6++Bf8A0TbwZ/4T2n//ABivf6KPrVb+Z/eH1Oh/IvuPn/8A4dffAvP/ACTbwZ/4T+n/APxim3n/AATF+BlvaySf8K18GHYhbH/CP6eM4H/XCvoKq+o/8g25/wCubfyp/Wq1/if3kvB0LP3F9x+ZH/BLr/hVP/BRC/8AGMOt/AH4a+E/+EV+xeS1jpVjP9p+0C5Lbt1uMbfs64/3zX2B/wAOvvgX/wBE28Gf+E9p/wD8Yr4k/wCDbb/kNfFj/uD/APoOo1+rVduY1KlLEOEJO3qcGV0qVXDqc4q/oeAf8OvvgX/0TbwZ/wCE9p//AMYo/wCHX3wL/wCibeDP/Ce0/wD+MV7/AEVw/Wq38z+89H6nQ/kX3HgH/Dr74F/9E28Gf+E9p/8A8Yo/4dffAv8A6Jt4M/8ACe0//wCMV7/RR9arfzP7w+p0P5F9x4B/w6++Bf8A0TbwZ/4T2n//ABij/h198C/+ibeDP/Ce0/8A+MV7/RR9arfzP7w+p0P5F9x4B/w6++Bf/RNvBn/hPaf/APGKP+HX3wL/AOibeDP/AAntP/8AjFe/0UfWq38z+8PqdD+RfceAf8OvvgX/ANE28Gf+E9p//wAYroPhp+wt8J/hBrw1PQfAHhKxv0+aOeLRLON42DKwKskSkEFFIOe1ev0UniKr0cmNYWitVBDApApVBFOorCxuFFFFMAooooAKKKKACiiigAooooAKKKKACiiigAooooAKKKKACkIyKWigBijIo2bmp9FAWGlaTb7frT6KAGbfb9aNvt+tPooAZt9v1o2+360+igBm32/Wjb7frT6KAGbfb9aAMmn0hGaAPkD/AIKbeEvif+0lYWfwp8AWS2um6wEl1nWVu1WS3tZRc2s6eU00O8Kskb43HJGNp6j82fF3/BIWDwP+3N4E+CN5411KSbxjoT6vdamLFBJaSJHesyKnmMGG6zxnf/GeuOf3jOQRX51/tH/N/wAF7vg+P+pRuv8A0XrVe5lePq01KEHZJN/M+fzbAU5yjVnq7pHR/wDBNT4EfFb9gTxtJ8NvEkP9veB9Tx/ZmsS3KRvb+XHcXMu2BbiXG6adUPC/dzz2+8ilI+d3en15NetKrP2kt2exhcOqFNUovRDNvt+tG32/Wn0VidAzb7frRt9v1p9FADNvt+tG32/Wn0UAM2+360bfb9afRQAzbSRA5zUlFABRRRQAUUUUAFFFFABRRRQAUUUUAFFFFABRRRQAUUUUAFFFFABRRRQAUUUUAFFFFABRRRQAUUUUAFFFFABRRRQAUUUUAFFFFABRRRQAUUUUAFFFFABRRRQAUUUUAFFFFABRRRQAUUUUAFFFFABRRRQAUUUUAFFFFABRRRQAUUUUAFFFFABRRRQAUUUUAFFFFABRRRQAUUUUAFFFFABRRRQAUUUUAFV9R/5Btz/1zb+VWKr6j/yDbn/rm38qOonsflb/AMG23/Ia+LH/AHB//QdRr9Wq/KX/AINtv+Q18WP+4P8A+g6jX6tV6eb/AO9S+X5HlZJ/ukfmFFFFeYesFFFFABRRRQAUUUUAFFFFABRRRQAUUUUAFFFFABRRRQAUUUUAFFFFABRRRQAUUUUAFFFFABRRRQAUUUUAFFFFABRRRQAUUUUAFFFFABRRRQAUUUUAIVy1fnT+0af+N+Pwf/7FG6/9F61X6L1+dP7Rv/KfD4P/APYo3X/ovWq78u+Kf+F/keZmnwQ/xL8z9Fe9LRRXAemFFFFABRRRQAUUUUAFFFFABRRRQAUUUUAFFFFABRRRQAUUUUAFFFFABRRRQAUUUUAFFFFABRRRQAUUUUAFFFFABRRRQAUUUUAFFFFABRRRQAUUUUAFFFFABRRRQAUUUUAFFFFABRRRQAUUUUAFFFFABRRRQAUUUUAFFFFABRRRQAUUUUAFFFFABRRRQAUUUUAFFFFABRRRQAUUUUAFFFFABRRRQAUUUUAFFFFABRRRQAUUUUAFFFFABVfUf+Qbc/8AXNv5VYqvqP8AyDbn/rm38qOonsflb/wbbf8AIa+LH/cH/wDQdRr9Wq/KX/g22/5DXxY/7g//AKDqNfq1Xp5v/vUvl+R5WSf7pH5hRRRXmHrBRRRQAUUUUAFFFFABRRRQAUUUUAFFFFABRRRQAUUUUAFFFFABRRRQAUUUUAFFFFABRRRQAUUUUAFFFFABRRRQAUUUUAFFFFABRRRQAUUUUAFFFFABX50/tG/8p8Pg/wD9ijdf+i9ar9Fq/On9o3/lPh8H/wDsUbr/ANF61Xfl3xT/AML/ACPMzT4Yf4kfotRRRXAemFFFFABRRRQAUUUUAFFFFABRRRQAUUUUAFFFFABRRRQAUUUUAFFFFABRRRQAUUUUAFFFFABRRRQAUUUUAFFFFABRRRQAUUUUAFFFFABRRRQAUUUUAFFFFABRRRQAUUUUAFFFFABRRRQAUUUUAFFFFABRRRQAUUUUAFFFFABRRRQAUUUUAFFFFABRRRQAUUUUAFFFFABRRRQAUUUUAFFFFABRRRQAUUUUAFFFFABRRRQAUUUUAFFFFABVfUf+Qbc/9c2/lViq+o/8g25/65t/KjqJ7H5W/wDBtt/yGvix/wBwf/0HUa/Vqvyl/wCDbb/kNfFj/uD/APoOo1+rVenm/wDvUvl+R5WSf7pH5hRRRXmHrBRRRQAUUUUAFFFFABRRRQAUUUUAFFFFABRRRQAUUUUAFFFFABRRRQAUUUUAFFFFABRRRQAUUUUAFFFFABRRRQAUUUUAFFFFABRRRQAUUUUAFFFFABX50/tG/wDKfD4P/wDYo3X/AKL1qv0Wr86f2jf+U+Hwf/7FG6/9F61Xfl3xT/wv8jzM0+GH+JH6LUUUVwHphRRRQAUUUUAFFFFABRRRQAUUUUAFFFFABRRRQAUUUUAFFFFABRRRQAUUUUAFFFFABRRRQAUUUUAFFFFABRRRQAUUUUAFFFFABRRRQAUUUUAFFFFABRRRQAUUUUAFFFFABRRRQAUUUUAFFFFABRRRQAUUUUAFFFFABRRRQAUUUUAFFFFABRRRQAUUUUAFFFFABRRRQAUUUUAFFFFABRRRQAUUUUAFFFFABRRRQAUUUUAFFFFABRRRQAVX1H/kG3P/AFzb+VWKr6j/AMg25/65t/KjqJ7H5W/8G23/ACGvix/3B/8A0HUa/Vqvyl/4Ntv+Q18WP+4P/wCg6jX6tV6eb/71L5fkeVkn+6R+YUUUV5h6wUUUUAFFFFABRRRQAUUUUAFFFFABRRRQAUUUUAFFFFABRRRQAUUUUAFFFFABRRRQAUUUUAFFFFABRRRQAUUUUAFFFFABRRRQAUUUUAFFFFABRRRQAV+dP7Rv/KfD4P8A/Yo3X/ovWq/Ravzp/aN/5T4fB/8A7FG6/wDRetV35d8U/wDC/wAjzM0+GH+JH6LUUUVwHphRRRQAUUUUAFFFFABRRRQAUUUUAFFFFABRRRQAUUUUAFFFFABRRRQAUUUUAFFFFABRRRQAUUUUAFFFFABRRRQAUUUUAFFFFABRRRQAUUUUAFFFFABRRRQAUUUUAFFFFABRRRQAUUUUAFFFFABRRRQAUUUUAFFFFABRRRQAUUUUAFFFFABRRRQAUUUUAFFFFABRRRQAUUUUAFFFFABRRRQAUUUUAFFFFABRRRQAUUUUAFFFFABRRRQAVX1H/kG3P/XNv5VYqvqP/INuf+ubfyo6iex+Vv8Awbbf8hr4sf8AcH/9B1Gv1ar8pf8Ag22/5DXxY/7g/wD6DqNfq1Xp5v8A71L5fkeVkn+6R+YUUUV5h6wUUUUAFFFFABRRRQAUUUUAFFFFABRRRQAUUUUAFFFFABRRRQAUUUUAFFFFABRRRQAUUUUAFFFFABRRRQAUUUUAFFFFABRRRQAUUUUAFFFFABRRRQAV+dP7Rv8Aynw+D/8A2KN1/wCi9ar9Fq/On9o3/lPh8H/+xRuv/RetV35d8U/8L/I8zNPhh/iR+i1FFFcB6YUUUUAFFFFABRRRQAUUUUAFFFFABRRRQAUUUUAFFFFABRRRQAUUUUAFFFFABRRRQAUUUUAFFFFABRRRQAUUUUAFFFFABRRRQAUUUUAFFFFABRRRQAUUUUAFFFFABRRRQAUUUUAFFFFABRRRQAUUUUAFFFFABRRRQAUUUUAFFFFABRRRQAUUUUAFFFFABRRRQAUUUUAFFFFABRRRQAUUUUAFFFFABRRRQAUUUUAFFFFABRRRQAUUUUAFV9R/5Btz/wBc2/lU5bFQalxptz/1yY/oaOonsflb/wAG23/Ia+LH/cH/APQdRr9Wq/KT/g21OdZ+LH/cH/8AQdRr9WicV6Wb/wC9S+X5Hl5L/ukfmLRRRmvNPVCiiigAooooAKKKKACiiigAooooAKKKKACiiigAooooAKKKKACiiigAooooAKKKKACiiigAooooAKKKKACiiigAooooAKKKKACiiigAooooAKKKKACvzp/aN/5T4fB//sUbr/0XrVfotX50/tG/8p8Pg/8A9ijdf+i9arvy74p/4X+R5mafDD/Ej9FqKKK4D0wooooAKKKKACiiigAooooAKKKKACiiigAooooAKKKKACiiigAooooAKKKKACiiigAooooAKKKKACiiigAooooAKKKKACiiigAooooAKKKKACiiigAooooAKKKKACiiigAooooAKKKKACiiigAooooAKKKKACiiigAooooAKKKKACiiigAooooAKKKKACiiigAooooAKKKKACiiigAooooAKKKKACignFJmgBaKTODS0AFFFFABRRRQAUUUUARzJ5gKnoy7TX5f/wDBRf8Aa9+KX/BMr9pa3bTbiPxB4M+IJfVlh1G6nujZtHdS+fFFGs0Kxr5UsAAw2cYzha/UJvvfrXi/7bn7KkP7Vnwd1nSNumf2r/Y2o2enSXlms/lTXEGxSrE5TDKpJHt6V2ZfUp06y9srxZw5jSqTov2LtJH4f/sZ/wDBRfxB+w9oHjKPw1ptnd6p4t+xbJLmF2EP2ZpifmSeIjKzN65wOnf9kv8Agmf8NviH4W+DZ1/4na1dap4r8RDFzC+pyX0NqIZ7hF8suSRujMRPztkjtgCvzB/4I5/8E9/EPxp/aOPiDWrbSrfQ/Bn/AB+w3ax3n2j7Va3cce1M4+V0UnPse1fuk0f4e3pXr8QV6Kn7OilfqzyOH8PW5HUrNpdEORtwpQuDQowooBya+bPpRaKKKYBRRRQAUUUUAFFFIWC0ALRSA5paACiiigAooooAKKKKACiiigAooooAKKKKACiiigAooooAKKKKACiiigAoopN4oAWiiigAooooAKKKKACiiigAooooAK/On9o3/lPh8H/+xRuv/RetV+iucGvzq/aOOP8Agvf8H/8AsUbr/wBF61Xfl/xT/wAL/I8zNPgh/iR+i1FIWxS1wHphRRRQAUUUUAFFFFABRRRQAUUUgYE0ALRRRQAUUUUAFFFFABRRRQAUUUUAFFFFABRRRQAUUUUAFFFFABRRRQAUUUUAFFFFABRRRQAUUUUAFFFFABRRRQAUUUUAFFFFABRRRQAUUUUAFFFFABRRRQAUUUUAFFFFABRRRQAUUUUAFFFFABRRRQAUUUUAFFFFABRRRQAUUUUAFFFFABRRRQAUUUUAFFFFAHz1+2p+3xoX7Jttd2DwXN54k+wxXlnALXzIH8yUxrvPmJ3Vieen5V8pf8PyfFPUeGNF64/48ZP/AJLrO/4LWMT8foBk4/sGz4zx/wAfU1fExr924R4LyrEZbTxOJp80pa7+SP5d4/8AETPMJnFTC4SryQg7aLfV9z7qb/guR4qY/wDIsaJ/4Ayf/JdH/D8vxX/0LGif+AMn/wAl18K0p4r6b/ULJOtH8T4mXilxIneOJdvNI+6f+H5fiv8A6FjRP/AGT/5Lo/4fl+K/+hY0T/wBk/8AkuvhWjNH+oWR/wDPn8Rf8RT4m/6CfwPur/h+X4r/AOhY0T/wBk/+S6P+H5fiv/oWNE/8AZP/AJLr4VzRmj/ULI/+fP4h/wART4m/6CfwPur/AIfl+K/+hY0T/wAAZP8A5Lo/4fl+K/8AoWNE/wDAGT/5Lr4VzRmj/ULI/wDnz+If8RT4m/6CfwPuof8ABcvxX/0LGi/+AMn/AMl0v/D8vxVj/kWNG/8AAF//AJLr4UzQTin/AKhZJ/z5/EP+Ip8Tf9BL+5H2p4W/4LI6r4K87+zPB+i232nb5n+jTPu25x968PqenrWsf+C5fiv/AKFjRf8AwBk/+S6+FcUZpf6h5I96P4h/xFLiZf8AMS/uR91f8Py/Ff8A0LGif+AMn/yXR/w/L8V/9Cxon/gDJ/8AJdfCtGaP9Qsj/wCfP4h/xFPib/oJ/A+6v+H5fiv/AKFjRP8AwBk/+S6P+H5fiv8A6FjRP/AGT/5Lr4VzRmj/AFCyP/nz+If8RT4m/wCgn8D7q/4fl+K/+hY0T/wBk/8Akuj/AIfl+K/+hY0T/wAAZP8A5Lr4VzRmj/ULI/8Anz+If8RT4m/6CfwR91f8Py/Ff/QsaJ/4Ayf/ACXR/wAPy/Ff/QsaJ/4Ayf8AyXXwrmjNH+oWR/8APn8Q/wCIp8Tf9BP4H3V/w/M8V/8AQsaJ/wCAMn/yXW38Ov8Agt9daj4tsrbxL4etrfTrqaOJpbKxbzE3OoJ5ujwF3Hoe3Ffn1nIp+nj/AInNh7XMf4fNWdXgHJHTdqVn6nRhPFPiP20efEXV+x/Qdp9/HqEJeI5UNjOMc1ZRu1c/8PZGfRJS2T+/PX/dWugTrX801YqEnFH9lYao50ozl1HUUUVJuFFFFABRRRQAUUUUAFFFFABRRRQAUUUUAFFFFABRRRQAUjHApaRulACE4asD4heNbH4a+FLjVtRMgtrbbu8tN7fM6oMD6sK32ODXlH7Zrn/hRup4JGfK7/8ATxDW2Hgp1YwezPOzbFSw2Dq4iG8Yto8Wuf8AgpJqonbyNHsjBuPl+ZbNu29s4n64pn/DyXWv+gNp3/gM3/x+vmqLmJfoKXFfdf2NhFo4n86PjzO7/wAY+lP+Hkutf9AbTv8AwGb/AOP0f8PJda/6A2nf+Azf/H6+a8UYo/sfB/yi/wBfM7/5/fgfSn/DyXWv+gNp3/gM3/x+j/h5LrX/AEBtO/8AAZv/AI/XzXijFH9j4P8AlD/XzO/+f34H0p/w8l1r/oDad/4DN/8AH6P+Hkutf9AbTv8AwGb/AOP1814oxR/Y+E/lD/XzO/8An9+B9Kf8PJda/wCgNp3/AIDN/wDH6P8Ah5LrX/QG07/wGb/4/XzXijFH9j4P+UP9fM7/AOf34H0qv/BSLWn/AOYPp3ti2b/4/Xi3jnx7p/jz9r7w18Z7vTWXxN4W02TS7aJCVt2jdbpSWTzCSf8AS5Od46DjjnlBxQea0hlOGj70Y+RlV43zmouWdbQ+lT/wUh1o5/4k2n5/69m/+P03/h5LrX/QG07/AMBm/wDj9fNnWkxUf2NhE7OJt/r5nf8Az+/A+lP+Hkutf9AbTv8AwGb/AOP0f8PJda/6A2nf+Azf/H6+a8UYpf2PhP5Rf6+Z3/z+/A+lP+Hkutf9AbTv/AZv/j9H/DyXWv8AoDad/wCAzf8Ax+vmvFGKP7Hwn8of6+Z3/wA/vwPpT/h5LrX/AEBtO/8AAZv/AI/R/wAPJda/6A2nf+Azf/H6+a8UYo/sfB/yh/r5nf8Az+/A+lP+Hkutf9AbTv8AwGb/AOP0D/gpJrR/5g2nf+Azf/H6+a8UYxR/Y+D/AJQ/18zv/n9+B9LD/gpHrA66Np//AIDN/wDH6+j/AIH/ABdsPjR4Oi1exEi9I5kePZtk2I7ADJ4+cd6/NojNfav/AATwY/8ACqbkZ4+2Px/2xt68nOMtoUqHtKasz7bgTizMsbmDw+KnzRaPoSiiivlT9nCiiigAooooAKKKKACiiigAooooAKKKKACiiigAooooAKKKKACiiigAooooAKKKKACiiigAooooAKKKKACiiigAooooAKKKKACiiigAooooAKKKKACiiigAooooAKKKKACiiigAooooAKKKKACiiigAooooAKKKKACiiigAooooAKKKKACiiigAooooA/Lv/gtZ/wAnAQ/9gGz/APSmavicV9sf8Fq/+TgIf+wDZ/8ApTNXxPX9P8D/APImo+i/JH8SeJmnEOI/xP8ANhSmlgtWupVSON5JCQFVFLMxPQADvVmTQ76G7W3awvluJBuSJrdxI455C4yRweQOx9K+r54rc+F9nN2sipRS3UDWT7Jo5IZASrLIpRlI6gg85pgkH94VSacboh3Tsx1DDIpBIrdCPzo81c/eH50AKRyKKTePUfnRuDDjn3o2HpshaM1Y07R7zW2K2Vne3jr94W1u8xA99oOOo/MUzUdNutHuBHeW9zaSEZCXELQsR06MAfWo9pDm5E9So0Z/Hrbv0+8iopPMHqPzo8wKcZGfrVvR2fQzi00tbMWin29rLeBvJilmSMF5DHGXCAdScdAO+ajLhT1HX1pXj9ljlf7VxaKQyBepA/GjzFx1H50wFopC4UckUeYMZyMeuaAFopPNX+8PzpVYN0OfpQAU/Tv+QxY/9fUf/oVMp+nf8hix/wCvqP8A9CrOt/DZrQ/ix9Ufvx8N/m0OXP8Az3P/AKCtdBjmuf8Ahr/yApf+u5/9BWuhr+PcR/EZ/oRgf93h6BRRRWJ1hRRRQAUUUUAFFFFABRRRQAUUUUAFFFFABRRRQAUUUUAFIRmlopPYBiDNeU/tnDHwO1L/ALZf+lENerx15R+2f/yQ7Uv+2X/pRDXXgf8AeIep4vEX/Isr/wCFn5/R/wCrX6U6mx/6tfpTq/ST+TQooooAKKKKfoF7assabpN5rVx5VjaXV7MBny4IWlbHAzhQT1I/Ormp+Btc0SLzbzRdYtYB96SeyljUdupUDqR+derfsHSNH8Wr0q2z/iXyZfbnZ++g5x7V6Fa/G7w38PvA+s2t14+tvGlxftC0MEemmyMYVxnlA2c5zz/d968nE5hUpVvZwjfbv/kfaZXwxhsRgo4rEVuS9/5baeru7+SPk9LhQ4G9Pf5hThMmcblz0xmvrj4k6b4R+GvgbRw3h4S3Wr+d+9bUJkEflyL7kchsdvxrSvfhx4UmvF8Jjwrdos1nNF/afn3RjjMZjiDkfdwfNLfexhep6jN5xGybg/wOj/UafM4/WIt2XR9dUv8Ag7Hxq8qoeWA+poaUBM5X8+K+o/hr8NLf4f8AiC50y+8GTXujy6m1vDqw1B40cFlVVEaknlVL5z3xWvrHwS8NeEviRe65HpTajDBpxmTTI55hIzPcBN24MX4D/wB3HHanLOqalZQ/LUmjwLiZ04zlUjvqmnou/n8j5IjH2hlWPMzNnaEG4n1wBVqXw/fQyTq1jeK9sA0waBgYgRnLDHAxzzX094E1Xw9L8UNB1Wz8GanpM959o3faHu1QbYmQYaRAp4z06ZHtXW/EB9G8SeJfG9xfaDKr6FaxTm4a4lUXANsWOAAAMBAOM0pZu+dR9nb/AIextQ4HjOk6jxKve2idno3fU+JzIp/iHHXnoaDMoGdy49c19aWXwO8N+MZ9K8X20CLodhpkNxfKJ5GUSJ++kUsXDA7COg49Kn8AeBPB+o6drfiWPTILi3TU5rKJW1CSJVjOx1O8sB/EBgjPPWiWc00r8r0MaPAmJnJRdWKT231Xf0PkUNuGRyKU9a9G/ae8KaP4c8f/AGjRprcw6iBJJbxTed9mbyoiQWLEn5mbnjpXnNerh60asFOOl+58lmOClhMVOhU15Xb/AIKCiiitDiCiiigAr7U/4J5f8ktuf+vtv/RNvXxXX2p/wTy/5Jbc/wDX23/om3rxc+/3Y/QfDb/kbL0PoSiiivhj+iwooooAKKKKACiiigAooooAKKKKACiiigAooooAKKKKACiiigAooooAKKKKACiiigAooooAKKKKACiiigAooooAKKKKACiiigAooooAKKKKACiiigAooooAKKKKACiiigAooooAKKKKACiiigAooooAKKKKACiiigAooooAKKKKACiiigAooooAKKKKAPy7/wCC1f8AycBD/wBgGz/9KZq+KAc8V9r/APBav/k4CH/sA2f/AKUzV8T1/UHA7/4RqK8l+SP4j8TP+ShxK/vP82ej/smTtB+0H4QIGca/ppx/28rX6G/Fb4T6Bq37ePgbxBP4+0Sy1Sw0aWCHR3SPz7tCl4DIpM4bA3t0Q/6s8+n5kfDbx7cfDHxtpmu2kEFzcaVewX0cUxOx2hkDqpxzgkYNen+Lf25te8Z/tBaD8Rp9A0GLVfD1i9hBap5nkSIwnBLEndn9+3Q/wiuHiLIsbjcXz4Z2XJJdNbrRa9+528LcTZbgMI6GMhzS54S+1ok9Xp+R6z4w+BVn45/aJ8d32vaF4snshrF80VxY3K2cIeS5ZgC720wbcFJUDHCsee3pOqf8ErPAeneJvD8sXiHxZLYa5ZT3bRiS3Mq4e2KhH8rDcSt/Dydp46HwvwZ/wVG8VeE9c167n8H+Dtai165F01repM8Vs4aQjYCx6eYw6dK9Q+B//BUu8+I/xBtT4v8ADOm6dp+gWTmxTQ4mZmYyQfI6yyBQm2P+E+nHp83jsBxBQXPTXLCK6STvp29T63Lcz4UxD9nUfPOcr6wkra33Vr6HK6h+x74C+IGmeMbTQj4/0TUPBmrTWT3GsyW8lrerDNHAxUJEhBYyhhyeFPrkdHafsN/DfTta8L6Bef8ACzLrUdcigjkvbN7X7JHI1g12zKDCW2fuygGc5YcnHPHfHD/goxe+Ptd1jw1pXhDw54a0i91Wa4m1HT4Gg1K7VXcr5u1tpZisbPknle+Aa7jxf/wU3X4afD7wuuheDdF1fVtMtLG2a81m2/eBhZbJJFdHLbicqDx8jHPpUSw2frkpq95bLmWm2rf6GqxvCt6lXT3dG+SWvko/qN8Pf8E1vB/iy+u9EsfEeuvqnh66shqL+ZA0RhnlDsyKELKVhDnLHGRnpmvnX9uH4R+Hf2f/AI6zeDdAvNS1KG0s7d57u7mibEkmXIARQAAjJwec5PQivVP2bP2pb/4Z6J488c63e6jf3/iDTwlvZ26MYkljguLdC8jzZxl0bhSeDjtXzh8YvibdfGv4j6j4lvVKT6kIwV3lyoSJIxyST/Bn8a+hyDD5n9fmq9VyhBW6fG7N/dr5HynFOLyb+zIVMFSUZ1JX66Q1X3vTzPt/wP8AEnUv2Df2H9B8T+CdPTxTfeI5beS8+2BpbezM9gsrjbDtPymBOrdGOexrz740/E3X/wBt7xR8K5fF3grVvDcd88Vg19Z+Ylvcxzvbl5YhLEcBd+4fOwwy5Pc+Z/A79vjxD8G/AR8MXvhrwv430MPvitdfjkuEhPlpENqligARCBhR99uxxUPxg/by8TfFbxR4U1C20bQPCtp4PKmy03SFlhtX2ujDcocADEaL8oHC/THFHhvGfWpVXSTm3J+05tbW0Vr/AKHpS4syypgqeH9vLkSinR5dNN3zW+e57J4Q/wCCe/h7Xvjh450Ka58Vx6X4c+wfZrgGMNL59uZH3MYipwwwMAfjXP8AwO/ZJ+HXxV+Es8mm6xr2qeLYreVrjTU1O2tmX5pRH5cSwzyOWwnynbksMHkVYu/+Cw3iyb7a8Hw+8AWVxqOz7TcQRzLNPs+5uYHJwOBnOAeK4j4M/wDBQzUfgdoDW2k/Dz4fNqLRtGdVNm0V2cuzqS6ncdpIxzxsFZxy7iSdJufxe7y+9HpvdlPN+EI14KnK8Xzc14TunpypennofRX7LfgzQvAX7KvxQ0y40nxZZzW82q6ddQ3M8Yl+WziV2XMKkcrgZXqDkdq89l/Yl+HvgLSPC91qsnxF1WTx8yXludMNssenJNay3KpIWibe6+QykjaDvU4GMHzj4ff8FH/FfgY+KRcaB4c16LxbdXd3dRX/AJzpC1zt3qgLHgbcDP8AeOa2/CP/AAVP8T+GdNFrc+B/AutRW9y09h9uglk/s1dnlrFFljtVULKNu3h2GACQclkeewqTlQXxau00r6efZ/edS4l4aq0qVKrL4VbWDfXy7o9Is/8Agmb4N+GGi+NbjxB4h8R6rD4Z+w+UNNaC3eXz2w24OjjgsuMHsfXjO1j9i74UaFY+ENelvPiI1t4v+2+TaLcWfm232YiNt0hiwdxORhenHvXkWm/8FD/GkHhnxNp19Z6Zqx8U/ZftE9zLOzw/Z3LLsy568A5PYVX1v9vTxFrvh/wtp0mhaEsXhP7X9mdWl3TfaGDPv5xwRxireScRSl71R3vrqtuVf+3GS4j4TjC0KXRbxk9ebX/yU+gPh7/wSu8JQSeJtT1fxXqJstN1O6sYU+0w2O1I9rK0krRSDOM5wg9eMYKeHv8Agmf8O9b+ONhZ2fjq61HSb3TWmnt7C+tri8t5su3EgTaYwAoyYwSTnjOK8h8Lf8FPfGHh3W9cuLjw74a1ex164uLqXTr0zyW8TzMC20FiOANoyvQnntVXQ/8Ago74g8MfFuPxbpvg/wAIafJHZNZCxt0kityGYtvO0j5ucdOgFYyynihzk3U3Wmsf6+Zu884N5IRp0tU9bxl/XyO+0L9nT4Iax8XvFXhW51vxlo9/4Zv2sYv7Q1ewgjvypkV2DmHKgCPPCN95Qcda8q/bN/ZmHwM1m0n07TtbTSrjf/plzc/bLebAhHySrbwrwzkHg84HbmLwd+2xceGviV4k8UXvgDwH4hvvEl61866lZmX7IzNIzLG5ycHzMfRFqD9qL9t7xJ+1RY2FnqWlaNoen6cZDFa6aZRGd5iY5DNt+9EDwP4j9a9vL8tzihmFOpK7pWXNeSettbJa7nz+aZtkeJyqrCFlW5nyqMWtL6Xb027HjOafp3/IYsf+vqP/ANCplP07/kMWP/X1H/6FX3dVWhI/M8O71I+p+/Hw1/5AUv8A13P/AKCtdDXPfDX/AJAUv/Xc/wDoK10Nfx5iP4jP9CcD/u8PQKKKKxOsKKKKACiiigAooooAKKKKACiiigAooooAKKKKACiiigAooopPYBsdeUftn/8AJDtS/wC2X/pRDXq8deUftn/8kO1L/tl/6UQ114H/AHiHqeLxF/yLK/8AhZ+f0f8Aq1+lOpsf+rX6U6v0o/k0KKKMUD0ejDBzwCfQDqaPLkP/ACxm/FDW78K7WLUvip4dtp41lgn1GCOSNlBV1LqCCDwa+z7/AOD6pYwf2J4X+HkluY8s+p6bumL72zyi4xgDH4152Mx6w8owavc+myLhuWZ0qlRS5eXpa58a/DD4m6h8J9clv7GC1lnmhMDJdIxAUsrE4BBzlB+tc8z5fd6V9BSfs9ab8Qtf8UahrrjRf+Eeju3e30CFUhkWFtx2hx1O5gPYLUH/AAxrpXiDxDo9tomuamlpqL3Ec7X8aNIjRxq427OMHdjmojmWH5nNqx0z4ZzScIwp+9BN2V0nulex5n8S/jVqnxT0Cz06/t7CCGx3+W1ujhjvZWOdzEdVHb1rqL39sXxNfeBW8PvYaELRrUWZkEUvmbPLMef9ZjOD6da6Pw9+y54K8XeIda0yw1jxbHcaJ5HmtcJBsk81Sw24yeADnI9KwPgb8DfCXxpvJ7JL/wATWd7bwI7ufJ8rex28DBJXPuDiueVbBun7y28nodlLLc+pVvZwqLmmrbrW2lin8Pf2tPEXw18Ny6XZWOizQSsXLTxSlwSqr2cDoo7UQftaeIrbx9b+IxY6L9ttrU2ixmOXyihLHJG/OfmPeum1H9kHSvBugaxq+va3qcthp95NaQpp8SCZwi71Zt5xyobOO+K1PD/7E+g+L20R7DXdbittYtkuz9pjjLxo0TOBheM8L39aU62Xq7a/BnRDLeJW4xjLWOyvG6PM/Hf7Rmt/EHxjZa3eWulRXNh5nlpDHII23oqHOXJ6KO9bvjL9svxN440S8sLrT9CjivoXgkaKKUMFZCpxmQjODXYeIP2G9Oi8Of2jpet6goi/1kd3tfdlgo2lVGO+cg9qdrP7F/hXTtd1jTk17xL5+i2bX0ztFCySRqisVXod3zjrxwaX1nL9NNvJj/sfiJOpefxNX1jro/0ueU+Gvj3q/hX4e3/hq3tdNex1AyGSSRHMq74xGcEMB0Hp1qT4PftC6z8FHuDpdrpdz9pLFvtSO2C2zONrr/cH616F/wAMc6Nrmg6Ze6NrurqLy+is5RfQodu5dzMoQ+4wCfWtHxJ+wrpljpFwthrmpf2nbxq5e4CG3c71RhtADDqSPmP9av65gWuR9fJmNPIuIYtVoPWC0d1t5Hh3xL+IV58U/GNxrWoRWsNzdMGdLcMsa4VV43Enoo71gEYOOT9K9/vP2TPCvhqz0FdY1jxK97rSzZ+xLD5SNFjd97nByMVpaX+z34T+HKePLTUpNT1afRdPEglMUPybraR8puBIbBGORyorVZnQhBQh+RxVOFMzqVJV8TJLm1bbT1tfW3c+b16UtWdaexfVZTpn2v7Dx5f2rb5vQZzt465qtXqQfMrnyNWm4ScHuvuCijNFUQwr7U/4J5f8ktuf+vtv/RNvXxXX2p/wTy/5Jbc/9fbf+ibevEz7/dj9A8Nv+RsvRn0JRRRXwx/RYUUUUAFFFFABRRRQAUUUUAFFFFABRRRQAUUUUAFFFFABRRRQAUUUUAFFFFABRRRQAUUUUAFFFFABRRRQAUUUUAFFFFABRRRQAUUUUAFFFFABRRRQAUUUUAFFFFABRRRQAUUUUAFFFFABRRRQAUUUUAFFFFABRRRQAUUUUAFFFFABRRRQAUUUUAFFFFAH5d/8Fq/+TgYf+wDZ/wDpTNXxPX2x/wAFrP8Ak4CH/sA2f/pTNXxOa/qDge/9jUWuy/JH8SeJf/JQ4lr+Z/mwooor6zz7nwWm6CkaNZFwyhvqM0tFHSwCKgC4xgegoVFQ8KB7+tLRQHSw0woX3eWu4dDjkU4nNFFHoPUKM0UUbaoOtwoxRRS8g6WDvRRRT3EFKaSijpYOtwHFFFFHmAUUUUrCsFP04/8AE5sf+vqP/wBCplP08f8AE5sf+vmP/wBCqanwNG1H+JF+aP34+G426FL/ANdz/wCgrXQd6574dAjQ5M/892/9BWt9Otfx3X/iyR/oRgf93h6D6KKKyOsKKKKACiiigAooooAKKKKACiiigAooooAKKKKACiiigAoopGGRQA1TgGvKP2zefgZqX/bL/wBKIa9YDZzXk/7ZjZ+Bupf9sv8A0ohrpwf+8Q9TxuIv+RZX/wALPz/j/wBWv0p1NiOYx9KdX6WfyYFFFFHSwPVWLvhjXZPCnifT9VhXfLp1wlyiZxuKMGAyQR29DXqWsfta2/ipo5NZ8DaZq1xGnlCaeWEttDFgP9T0BJryCiuerhqVVpzWqPTwWcYzCRcMPOye+if5pnpGl/tJS+HLHWbTS9Bt9Os9binheGGWMLH5oAJ/1fOAAOMdO1bvwu/aHudc8a6Pa3l0+jW1tJcS/aYx5nLw4xtRAf4FH/AvY140eaCF9Mj0rOWBotNJavqdVDiLHQnGUp3Se23W9tD7q8S+JfDPgg61qkTWNnBc+Rl4dP2tPtwvzFU3HBbjPrxXz7aftxazaadYxHQ7eaTTolihmMkIO0AA4Hk8Z2qfbFeKCBAw+VeOuBTwea5KGT0oR998x7Gacb42u1LC2pLra3r2Pq34AfEuy+KHhnXX1m9WSa9uLiUaZcW5uI43ZI/nyV2cFiuMDjPY1D8evj/F8LU0CLQJEOpWEcStFFCIUWLy5oygBQpgHHT0GK+V2RXHKgn3FCIEHAA+gpLJ6bqObenYv/XbEvB/V4K0l9q+p6l4z/amuvF0afZ9F/suVc7pI7wOX6Y6Rjpj9ak1P9rvV9T1zWb59OAk1uyaxlHnR/IrIq5z5fPCj0+teVZorrWX4dK3IeI+Jszk+Z1nd+nRW/I9Itv2pda07wtbaXaQG2+y3SXaTLIn3lTaBjy/oevbpV7xf+1vqHjLwsLKfSPLv9kaNqAul3NtIJO0Rj7xz3715TRQ8vw7d+UFxLmaTj7Z2at0PQtU/aT1PWLTw/FNZ5/4R6OWONmlQ+d5gUE/c4+73zV9/wBrHU7nxPrOoz6ZHPDrsSw3Vo8kZWRREYsE+Xjoc9B/WvLqKr6jQtblM/8AWDMb39q+nbpoi/4o1uDxJrs17b6fDpcUoUC2ixsjwoHGABzjPTvVDOaKK6opRVkeTOpKc3UluwooopkBX2p/wTx/5Jbc/wDX2/8A6Jt6+K2+WvtT/gnkf+LWXP8A19t/6Jt68TPv92P0Hw2/5Gy9D6Eooor4Y/osKKKKACiiigAooooAKKKKACiiigAooooAKKKKACiiigAooooAKKKKACiiigAooooAKKKKACiiigAooooAKKKKACiiigAooooAKKKKACiiigAooooAKKKKACiiigAooooAKKKKACiiigAooooAKKKKACiiigAooooAKKKKACiiigAooooAKKKKACiiigD5X/4KEfsBXn7VyXWraJc2sGvx6dBaWq3M/lQs0c7SfMREzchiOo/Cvjgf8EW/jcP+Wngf6/2lL/8AGq/W+ivrso42zPLaH1fDtcvmrn59n3hnkmb4r63ilJTf8rt+jPyQ/wCHLXxuH/LXwR+Opy//ABqk/wCHLPxv/wCevgj/AMGcv/xqv1wor1P+Im51teP/AID/AME8V+C3Djd37T/wL/gH5H/8OWfjf/z18Ef+DOX/AONUf8OWfjf/AM9fBH/gzl/+NV+uFFH/ABE3Ou8f/Af+CL/iCnDn/Tz/AMC/4B+R/wDw5Z+N/wDz18Ef+DOX/wCNUf8ADln43/8APXwR/wCDOX/41X64UUf8RNzrvH/wH/gh/wAQU4c/6ef+Bf8AAPyP/wCHLPxv/wCevgj/AMGcv/xqj/hyz8b/APnr4I/8Gcv/AMar9cKKP+Im513j/wCA/wDBD/iCnDn/AE8/8C/4B+R//Dln43/89fBH/gzl/wDjVH/Dln43/wDPXwR/4M5f/jVfrhRR/wARNzrvH/wH/gj/AOIK8Of9PP8AwL/gH5H/APDln43/APPXwR/4M5f/AI1R/wAOWfjf/wA9fBH/AIM5f/jVfrhRR/xE3Ou8f/Af+CL/AIgpw5/08/8AAv8AgH5H/wDDln43/wDPXwR/4M5f/jVH/Dln43/89fBH/gzl/wDjVfrhRR/xE3Ou8f8AwH/gh/xBThz/AKef+Bf8A/I//hyz8b/+evgj/wAGcv8A8ao/4cs/G/8A56+CP/BnL/8AGq/XCij/AIibnXeP/gP/AAQ/4gpw5/08/wDAv+Afkf8A8OWfjf8A89fBH/gzl/8AjVH/AA5Z+N//AD18Ef8Agzl/+NV+uFFH/ETc67x/8B/4I/8AiCvDn/Tz/wAC/wCAfkf/AMOWfjf/AM9fBH/gzl/+NUf8OWfjf/z18Ef+DOX/AONV+uFFH/ETc67x/wDAf+CL/iCnDn/Tz/wL/gH5H/8ADln43/8APXwR/wCDOX/41W38O/8Agir8U38Z6bL4ivPCkGlW1zFNMbTUZDKyq6lgAYSCdu7r3xX6q0VnV8Sc5qQdOTjZ/wB3/gmtDwa4dpVFUip3X97/AIBWs9Nj06HZCoVSdxAAHP8AkVYAwxpaK+BP1aMVFWQUUUUDCiiigAooooAKKKKACiiigAooooAKKKKACiiigAooooAKKKKAGquK5n4rfDtPib4Lu9ImO0XGzDAgEbZFfqQf7vpXUUU4ycZKS3RlXowrUpUam0lZnwvP/wAE7/iHFKyxSeHWiUkIxvH3MO2fk60z/h3j8R/7/hz/AMDH/wDiK+66K9pZ/i12+4+Dl4Z5M3f3v/Av+AfCn/DvH4j/AN/w5/4GP/8AEUf8O8fiP/f8Of8AgY//AMRX3XRT/wBYMX5fcT/xDHJf7/8A4F/wD4U/4d4/Ef8Av+HP/Ax//iKUf8E8/iMB9/w5/wCBj/8AxFfdVFL/AFgxfl9wv+IYZL/f/wDAv+AfCo/4J5/EbP3/AA5/4GP/APEUg/4J5/Ecfx+HP/Ax/wD4ivuuin/rBi/L7h/8QwyX+/8A+Bf8A+Ff+HenxG/veHP/AAMf/wCIo/4d5/Ef+/4b/wDAx/8A4ivuqil/b+K8vuD/AIhjkq2Uv/Av+AfCo/4J5/Eb+94c/wDAx/8A4ig/8E8/iN/f8Of+Bj//ABFfdVFH9v4ry+4X/EMMk7S/8C/4B8K/8O8/iP8A3/Dn/gY//wARSf8ADvH4j/3/AA5/4GP/APEV910Uf6wYvy+4f/EMcl/v/wDgX/APhT/h3j8R/wC/4c/8DH/+Io/4d4/Ef+/4c/8AAx//AIivuuin/rBi/L7g/wCIY5L/AH//AAL/AIB8Kf8ADvH4j/3/AA5/4GP/APEUf8O8fiP/AH/Dn/gY/wD8RX3XRR/rBi/L7g/4hjkv9/8A8C/4B8Kf8O8fiP8A3/Dn/gY//wARR/w7x+I/9/w5/wCBj/8AxFfddFH+sGL8vuD/AIhjkv8Af/8AAv8AgHwp/wAO8fiP/f8ADn/gY/8A8RR/w7y+I4/j8Of+Bj//ABFfddFL/WDF+X3B/wAQxyX+/wD+Bf8AAPhX/h3l8RmABk8OjA6i8f8A+Ir6r/Zz+DX/AApL4fxaW7rLcswlmdWDDf5catg7VOMp6V39FcuLzSviI8lS1j2cl4Oy7Kqrr4VPmemrv+gUUUV5x9UFFFFABRRRQAUUUUAFFFFABRRRQAUUUUAFFFFABRRRQAUUUUAFFFFABRRRQAUUUUAFFFFABRRRQAUUUUAFFFFABRRRQAUUUUAFFFFABRRRQAUUUUAFFFFABRRRQAUUUUAFFFFABRRRQAUUUUAFFFFABRRRQAUUUUAFFFFABRRRQAUUUUAFFFFABRRRQAUUUUAFFFFABRRRQAUUUUAFFFFABRRRQAUUUUAFFFFABRRRQAUUUUAFFFFABRRRQAUUUUAFFFFABRRRQAUUUUAFFFFABRRRQAUUUUAFFFFABRRRQAUUUUAFFFFABRRRQAUUUUAFFFFABRRRQAUUUUAFFFFABRRRQAUUUUAFFFFABRRRQAUUUUAFFFFABRRRQAUUUUAFFFFABRRRQAUUUUAFFFFABRRRQAUUUUAFFFFABRRRQAUUUUAFFFFABRRRQAUUUUAFFFFABRRRQAUUUUAFFFFABRRRQAUUUUAFFFFABRRRQAUUUUAFFFFABRRRQAUUUUAFFFFABRRRQAUUUUAFFFFABRRRQAUUUUAFFFFABRRRQAUUUUAFFFFABRRRQAUUUUAFFFFABRRRQAUUUUAFFFFABRRRQAUUUUAFFFFABRRRQAUUUUAFFFFABRRRQAUUUUAFFFFABRRRQAUUUUAFFFFABRRRQAUUUUAFFFFABRRRQAUUUUAFFFFABRRRQAUUUUAFFFFABRRRQAUUUUAFFFFABRRRQAUUUUAFFFFABRRRQAUUUUAFFFFABRRRQAUUUUAFFFFABRRRQAUUUUAFFFFABRRRQAUUUUAFFFFABRRRQAUUUUAFFFFABRRRQAUUUUAFFFFABRRRQAUUUUAFFFFABRRRQAUUUUAFFFFABRRRQAUUUUAFFFFABRRRQAUUUUAFFFFABRRRQAUUUUAFFFFABRRRQAUUUUAFFFFABRRRQAUUUUAFFFFABRRRQAUUUUAFFFFABRRRQAUUUUAFFFFABRRRQAUUUUAFFFFABRRRQAUUUUAFFFFABRRRQAUUUUAFFFFABRRRQAUUUUAFFFFABRRRQAUUUUAFFFFABRRRQAUUUUAFFFFABRRRQAUUUUAFFFFABRRRQAUUUUAFFFFABRRRQAUUUUAFFFFABRRRQAUUUUAFFFFABRRRQAUUUUAFFFFABRRRQAUUUUAFFFFABRRRQAUUUUAFFFFABRRRQAUUUUAFFFFABRRRQAUUUUAFFFFABRRRQAUUUUAFFFFABRRRQAUUUUAFFFFABRRRQAUUUUAFFFFABRRRQAUUUUAFFFFABRRRQAUUUUAFFFFABRRRQAUUUUAFFFFABRRRQAUUUUAFFFFABRRRQAUUUUAFFFFABRRRQAUUUUAFFFFABRRRQAUUUUAFFFFABRRRQAUUUUAFFFFABRRRQAUUUUAFFFFABRRRQAUUUUAFFFFABRRRQAUUUUAFFFFABRRRQAUUUUAFFFFABRRRQAUUUUAFFFFABRRRQAUUUUAFFFFABRRRQAUUUUAFFFFABRRRQAUUUUAFFFFABRRRQAUUUUAFFFFABRRRQAUUUUAFFFFABRRRQAUUUUAFFFFABRRRQAUUUUAFFFFABRRRQAUUUUAFFFFABRRRQAUUUUAFFFFABRRRQAUUUUAFFFFABRRRQAUUUUAFFFFABRRRQAUUUUAFFFFABRRRQAUUUUAFFFFABRRRQAUUUUAFFFFABRRRQAUUUUAFFFFABRRRQAUUUUAFFFFABRRRQAUUUUAFFFFABRRRQAUUUUAFFFFABRRRQAUUUUAFFFFABRRRQAUUUUAFFFFABRRRQAUUUUAFFFFABRRRQAUUUUAFFFFABRRRQAUUUUAFFFFABRRRQAUUUUAFFFFABRRRQAUUUUAFFFFABRRRQAUUUUAFFFFABRRRQAUUUUAFFFFABRRRQAUUUUAFFFFABRRRQAUUUUAFFFFABRRRQAUUUUAFFFFABRRRQAUUUUAFFFFABRRRQAUUUUAFFFFABRRRQAUUUUAFFFFABRRRQAUUUUAFFFFABRRRQAUUUUAFFFFABRRRQAUUUUAFFFFABRRRQAUUUUAFFFFABRRRQAUUUUAFFFFABRRRQAUUUUAFFFFABRRRQAUUUUAFFFFABRRRQAUUUUAFFFFABRRRQAUUUUAFFFFABRRRQAUUUUAFFFFABRRRQAUUUUAFFFFABRRRQAUUUUAFFFFABRRRQAUUUUAFFFFABRRRQAUUUUAFFFFABRRRQAUUUUAFFFFABRRRQAUUUUAFFFFABRRRQAUUUUAFFFFABRRRQAUUUUAFFFFABRRRQAUUUUAFFFFABRRRQAUUUUAFFFFABRRRQAUUUUAFFFFABRRRQAUUUUAFFFFABRRRQAUUUUAFFFFABRRRQAUUUUAFFFFABRRRQAUUUUAFFFFABRRRQAUUUUAFFFFABRRRQAUUUUAFFFFABRRRQAUUUUAFFFFABRRRQAUUUUAFFFFABRRRQAUUUUAFFFFABRRRQAUUUUAFFFFABRRRQAUUUUAFFFFABRRRQAUUUUAFFFFABRRRQAUUUUAFFFFABRRRQAUUUUAFFFFABRRRQAUUUUAFFFFABRRRQAUUUUAFFFFABRRRQAUUUUAFFFFABRRRQAUUUUAFFFFABRRRQAUUUUAFFFFABRRRQAUUUUAFFFFABRRRQAUUUUAFFFFABRRRQAUUUUAFFFFABRRRQAUUUUAFFFFABRRRQAUUUUAFFFFABRRRQAUUUUAFFFFABRRRQAUUUUAFFFFABRRRQAUUUUAFFFFABRRRQAUUUUAFFFFABRRRQAUUUUAFFFFABRRRQAUUUUAFFFFABRRRQAUUUUAFFFFABRRRQAUUUUAFFFFABRRRQAUUUUAFFFFABRRRQAUUUUAFFFFABRRRQAUUUUAFFFFABRRRQAUUUUAFFFFABRRRQAUUUUAFFFFABRRRQAUUUUAFFFFABRRRQAUUUUAFFFFABRRRQAUUUUAFFFFABRRRQAUUUUAFFFFABRRRQAUUUUAFFFFABRRRQAUUUUAFFFFABRRRQAUUUUAFFFFABRRRQAUUUUAFFFFABRRRQAUUUUAFFFFABRRRQAUUUUAFFFFABRRRQAUUUUAFFFFABRRRQAUUUUAFFFFABRRRQAUUUUAFFFFABRRRQAUUUUAFFFFABRRRQAUUUUAFFFFABRRRQAUUUUAFFFFABRRRQAUUUUAFFFFABRRRQAUUUUAFFFFABRRRQAUUUUAFFFFABRRRQAUUUUAFFFFABRRRQAUUUUAFFFFABRRRQAUUUUAFFFFABRRRQAUUUUAFFFFABRRRQAUUUUAFFFFABRRRQAUUUUAFFFFABRRRQAUUUUAFFFFABRRRQAUUUUAFFFFABRRRQAUUUUAFFFFABRRRQAUUUUAFFFFABRRRQAUUUUAFFFFABRRRQAUUUUAFFFFABRRRQAUUUUAFFFFABRRRQAUUUUAFFFFABRRRQAUUUUAFFFFABRRRQAUUUUAFFFFABRRRQAUUUUAFFFFABRRRQAUUUUAFFFFABRRRQAUUUUAFFFFABRRRQAUUUUAFFFFABRRRQAUUUUAFFFFABRRRQAUUUUAFFFFABRRRQAUUUUAFFFFABRRRQAUUUUAFFFFABRRRQAUUUUAFFFFABRRRQAUUUUAFFFFABRRRQAUUUUAFFFFABRRRQAUUUUAFFFFABRRRQAUUUUAFFFFABRRRQAUUUUAFFFFABRRRQAUUUUAFFFFABRRRQAUUUUAFFFFABRRRQAUUUUAFFFFABRRRQAUUUUAFFFFABRRRQAUUUUAFFFFABRRRQAUUUUAFFFFABRRRQAUUUUAFFFFABRRRQAUUUUAFFFFABRRRQAUUUUAFFFFABRRRQAUUUUAFFFFABRRRQAUUUUAFFFFABRRRQAUUUUAFFFFABRRRQAUUUUAFFFFABRRRQAUUUUAFFFFABRRRQAUUUUAFFFFABRRRQAUUUUAFFFFABRRRQAUUUUAFFFFABRRRQAUUUUAFFFFABRRRQAUUUUAFFFFABRRRQAUUUUAFFFFABRRRQAUUUUAFFFFABRRRQAUUUUAFFFFABRRRQAUUUUAFFFFABRRRQAUUUUAFFFFABRRRQAUUUUAFFFFABRRRQAUUUUAFFFFABRRRQAUUUUAFFFFABRRRQAUUUUAFFFFABRRRQAUUUUAFFFFABRRRQAUUUUAFFFFABRRRQAUUUUAFFFFABRRRQAUUUUAFFFFABRRRQAUUUUAFFFFABRRRQAUUUUAFFFFABRRRQAUUUUAFFFFABRRRQAUUUUAFFFFABRRRQAUUUUAf/9k=;" vertex="1" parent="1">
          <mxGeometry x="130" y="150" width="1152" height="648" as="geometry" />
        </mxCell>
        <mxCell id="DiBz2OChCTfoum1YHqz3-9" value="" style="endArrow=classic;html=1;" edge="1" parent="1" source="DiBz2OChCTfoum1YHqz3-1" target="DiBz2OChCTfoum1YHqz3-1">
          <mxGeometry width="50" height="50" relative="1" as="geometry">
            <mxPoint x="710" y="560" as="sourcePoint" />
            <mxPoint x="760" y="510" as="targetPoint" />
          </mxGeometry>
        </mxCell>
        <mxCell id="DiBz2OChCTfoum1YHqz3-12" value="" style="endArrow=classic;html=1;entryX=0.443;entryY=0.679;entryDx=0;entryDy=0;entryPerimeter=0;exitX=0.608;exitY=0.679;exitDx=0;exitDy=0;exitPerimeter=0;" edge="1" parent="1" source="DiBz2OChCTfoum1YHqz3-1" target="DiBz2OChCTfoum1YHqz3-1">
          <mxGeometry width="50" height="50" relative="1" as="geometry">
            <mxPoint x="740" y="600" as="sourcePoint" />
            <mxPoint x="790" y="550" as="targetPoint" />
          </mxGeometry>
        </mxCell>
      </root>
    </mxGraphModel>
  </diagram>
</mxfile>
